<?xml version="1.0" encoding="utf-8" ?><svg xmlns="http://www.w3.org/2000/svg" xmlns:xlink="http://www.w3.org/1999/xlink" width="1239" height="782" viewBox="0 0 1239 782"><path fill="#2A2A28" d="M0 0L296.108 0L459.923 0L1239 0L1239 9.45552L1239 781.22L1239 782L480.861 782L457.349 782L0 782L0 780.49L0 0.762466L0 0Z"/><path fill="#BA694B" d="M1239 9.45552L1239 781.22L1239 782L480.861 782L457.349 782L456.948 781.009L456.035 780.766C463.221 772.566 474.561 761.677 482.462 753.676L530.979 704.581L701.927 531.524L751.448 481.542C762.844 470.134 775.202 458.311 785.928 446.324C785.396 469.237 782.692 502.657 797.126 522.407C789.837 531.718 786.558 540.401 783.397 551.588C779.343 566.038 775.662 580.591 772.357 595.231C768.373 612.781 733.325 777.308 735.038 780.368C737.027 780.51 737.914 780.726 739.807 780.06C741.238 776.507 742.967 766.749 743.801 762.64L750.367 730.226C753.655 713.973 756.836 697.491 760.251 681.301C770.05 634.849 778.146 586.675 792.524 541.427C802.285 510.711 855.707 493.909 882.789 482.597C879.215 496.223 876.556 510.471 889.434 520.469C900.427 529.002 914.99 529.354 928.244 527.785C922.572 541.74 918.648 545.916 907.962 556.179C932.106 558.384 941.413 544.495 953.047 526.025C949.532 540.232 948.219 543.842 940.835 556.516L941.634 556.165C957.27 549.218 965.007 530.071 970.77 515.118C1000.62 497.294 1018.44 480.972 1045.16 459.205C1058.33 467.071 1071.64 474.362 1085.22 481.493C1098.21 488.305 1111.65 494.783 1123.55 503.407C1132.85 510.144 1139.5 517.94 1144.27 528.421C1164.29 572.426 1163.06 681.821 1162.25 732.136C1162.04 741.882 1161.75 751.626 1161.35 761.367C1161.17 766.425 1160.59 775.439 1161.34 780.149C1163.06 781.128 1162.35 780.869 1164.42 780.873C1165.2 780.43 1166.35 779.979 1166.4 779.051C1167.49 760.909 1167.99 736.423 1168.15 718.739C1168.67 666.664 1168.93 614.668 1160.12 563.143C1157.47 547.588 1153.75 534.981 1149.02 520.082C1148.17 517.385 1148.63 508.145 1148.27 504.519C1145.08 472.526 1134.95 442.3 1126.79 411.41C1121.08 389.768 1116.48 367.846 1113.01 345.732C1110.49 329.767 1108.54 313.717 1107.17 297.612C1104.32 261.42 1101.96 195.469 1087.65 163.042L1165.58 84.0268C1190.34 59.4561 1214.82 34.5974 1239 9.45552Z"/><path fill="#2A2A28" d="M807.157 579.23C808.505 573.602 813.291 551.905 817.192 548.533L817.637 548.854C817.89 556.825 813.874 577.124 811.943 585.652C808.4 601.301 802.668 618.439 798.147 634.03C790.354 660.902 789.538 684.714 792.414 712.36C793.888 727.539 795.66 742.688 797.728 757.799C798.138 760.843 800.925 778.132 800.806 780.201C798.67 781.059 797.396 780.937 795.108 781.01C790.158 737.215 779.484 692.031 788.559 648.288C790.235 640.211 793.168 632.788 792.996 624.444C793.101 614.377 790.143 575.533 793.749 568.715C796.11 570.831 798.4 605.66 798.858 611.561C801.576 601.286 804.91 589.498 807.157 579.23Z"/><path fill="#2A2A28" d="M795.108 781.01C802.811 781.772 825.349 781.282 834.29 781.155C853.8 780.877 875.891 781.768 895.122 781.032C902.762 781.787 920.4 781.171 929.012 781.165L999.249 781.15L1239 781.22L1239 782L480.861 782L480.666 781.28C488.717 780.75 502.079 781.141 510.569 781.14L567.851 781.14L713.825 781.162C740.428 781.172 768.683 781.653 795.108 781.01Z"/><path fill="#2A2A28" d="M895.122 781.032C891.067 769.788 873.221 727.563 874.517 718.601L875.206 717.896C875.848 718.627 876.272 719.069 876.828 719.882C879.587 726.932 901.211 776.575 901.326 780.425C898.997 780.775 897.467 780.908 895.122 781.032Z"/><path fill="#2A2A28" d="M456.948 781.009C462.301 781.08 475.753 780.841 480.666 781.28L480.861 782L457.349 782L456.948 781.009Z"/><path fill="#2A2A28" d="M1104.81 518.799L1106.15 519.198L1106.69 520.317C1105.62 523.376 1096.16 529.737 1092.59 533.22C1087.55 538.135 1083.03 543.556 1079.1 549.396C1060.96 576.016 1049.16 621.496 1048.57 653.835C1048.21 673.223 1051.75 711.058 1055.46 730.724C1058.93 713.987 1078.81 595.504 1085.84 591.039C1087.35 593.133 1086.11 596.706 1085.71 599.18C1079.5 637.582 1070.53 676.072 1064.58 714.439C1063.06 722.514 1054.14 778.134 1052.27 780.41C1049.93 780.608 1049.37 780.702 1047.02 780.175C1046.18 776.813 1047.01 769.885 1046.99 766.307C1047.1 745.237 1051.04 727.987 1043.12 707.718C1032.07 679.434 1026.62 647.969 1023.79 617.842C1023.36 613.331 1022.29 603.766 1023.66 599.714L1024.49 599.335C1026.42 601.561 1026.89 607.641 1027.26 610.673C1029.92 632.518 1035.89 652.847 1042.92 673.597C1043.16 626.04 1056.88 541.996 1104.81 518.799Z"/><path fill="#2A2A28" d="M0 780.49L324.973 780.806L412.788 780.787C426.701 780.786 442.245 781.127 456.035 780.766L456.948 781.009L457.349 782L0 782L0 780.49Z"/><path fill="#2A2A28" d="M0 0L296.108 0L295.888 0.749942C262.659 1.29309 227.689 0.776054 194.335 0.784084L0 0.762466L0 0Z"/><path fill="#2A2A28" d="M296.108 0L459.923 0C455.655 1.60645 436.25 0.976997 430.346 0.977739L382.863 0.972438C355.954 0.963768 322.321 1.85762 295.888 0.749942L296.108 0Z"/><path fill="#BA694B" d="M939.202 83.1151C974.578 79.5303 1024.22 94.7007 1050.76 118.467C1093.67 156.879 1095.71 221.293 1099.59 274.677C1101.52 301.295 1103.95 327.287 1108.38 353.557C1112.17 375.685 1116.94 397.636 1122.67 419.345C1130.68 449.655 1140.58 481.082 1142.49 512.571C1137.36 505.887 1134.36 503.334 1127.72 498.042C1123.5 474.41 1118.27 456.114 1110.74 433.472C1113.3 451.433 1118.32 475.47 1121.73 493.842C1117.9 491.637 1113.84 489.047 1110.05 486.729C1106.94 481.428 1103.08 471.39 1100.63 465.387C1088.26 435.031 1079.53 404.053 1072 372.222C1070.37 365.312 1064.03 335.75 1062.1 331.988C1067.58 376.616 1075.58 418.829 1092.47 460.715C1095.35 467.848 1098.68 475.183 1101.18 482.41C1076.4 468.588 1064.87 462.817 1052.74 435.72C1036.94 400.428 1033.41 365.857 1032.71 327.857C1038.25 320.651 1044.76 311.265 1046.45 302.202C1049.54 283.904 1044.06 264.145 1040.99 246.133C1037.32 224.51 1034.96 200.745 1022.92 181.993C1030.34 203.499 1034.21 226.101 1036.81 248.64C1037.31 252.996 1038.14 257.488 1038.94 261.796C1028.92 251.052 1025.59 245.602 1018.1 232.916C1006.38 213.077 996.012 186.028 978.03 171.466C983.421 180.669 989.911 190.024 994.906 199.384C1005.6 219.414 1014.16 237.039 1027.33 255.815C1023.78 256.068 1020.23 256.529 1016.69 256.95L1007.81 252.144C985.858 239.763 961.426 206.03 947.896 185.072C940.154 173.081 929.257 156.966 917.85 148.387C926.645 160.203 935.44 172.613 942.781 185.357C958.171 212.076 982.2 248.256 1012.85 258.812C1007.71 260.326 1003.23 260.716 997.872 260.506C964.857 259.21 938.428 246.18 917.847 220.168C912.064 212.858 906.373 202.217 900.562 196.045C899.199 200.164 907.349 211.919 909.44 215.386C918.713 230.767 928.771 240.559 943.713 250.286C937.05 248.317 931.57 246.77 925.28 243.576C899.909 230.691 881.722 205.802 872.8 179.212C870.81 173.281 871.289 167.675 869.679 162.834L869.18 163.163C869 164.112 868.867 165.07 868.781 166.032C866.384 192.555 879.748 231.541 896.907 252.5C888.328 250.261 880.773 246.953 873.936 241.273C847.073 218.955 838.979 186.872 835.114 154.05C826.323 189.676 823.027 233.668 840.011 267.318C807.834 251.868 806.582 219.96 803.654 189.324C795.311 219.179 793.113 245.722 801.714 275.539C775.434 256.979 780.937 223.44 782.178 196.285C774.4 222.174 772.048 249.375 778.42 275.761C746.258 235.049 768.434 182.436 799.736 148.682C838.661 106.71 882.093 85.8471 939.202 83.1151Z"/><path fill="#BA694B" d="M833.985 178.311C834.879 179.216 840.015 197.151 841.042 200.041C846.183 214.51 853.94 225.134 863.675 236.797C860.138 237.681 851.444 240.033 849.417 242.964L850.175 243.806C855.264 245.054 863.002 242.819 868.206 241.664C880.114 251.073 885.881 254.648 901.286 254.603C897.249 248.779 895.259 245.331 892.43 238.962C897.463 238.726 903.077 238.155 908.145 237.747C918.061 246.541 933.387 253.121 946.724 253.626C961.318 283.086 956.065 349.163 955.13 383.163C934.123 396.311 887.368 422.067 862.587 419.009C856.12 413.837 831.502 373.949 826.501 364.148C824.161 359.561 821.666 347.55 820.425 341.745C824.523 345.186 826.445 346.753 831.18 349.266C827.611 342.436 820.909 336.087 815.501 330.397C820.723 324.245 826.472 318.465 829.141 310.606C830.404 306.885 831.96 300.337 831.03 296.485C830.065 297.418 827.196 305.882 826.268 307.815C824.018 312.506 821.748 316.117 818.928 320.467C818.153 314.7 817.016 308.988 815.524 303.363C813.83 311.502 814.445 316.202 814.957 324.428C813.749 325.984 812.195 328.463 811.057 330.173C817.225 340.875 815.619 341.452 817.993 352.653C820.985 366.77 822.018 375.436 821.232 390.008C820.212 408.946 821.614 428.504 823.194 447.401C824.187 463.864 827.845 482.315 835.431 497.058C830.145 499.37 825.955 501.441 820.839 504.125C807.468 476.161 806.763 455.815 805.746 425.367C800.478 442.789 799.195 479.574 800.662 497.952C800.865 500.485 803.393 510.584 804.014 514.639C803.625 516.352 802.09 517.463 800.744 518.756C785.814 491.545 790.555 451.672 793.213 421.68L798.216 364.303C800.593 335.283 800.872 305.219 803.796 277.027C804.352 279.883 804.633 284.374 807.258 285.732C809.353 285.13 810.214 283.349 811.565 281.465C812.89 286.44 815.133 301.054 818.607 303.191C832.231 311.572 824.278 286.848 823.265 283.585C825.047 285.212 826.834 287.425 829.326 286.927C830.337 281.863 821.774 276.015 817.391 274.919C812.162 273.61 810.235 274.511 805.767 277.023C804.039 269.217 802.213 261.357 800.876 253.48C804.17 253.672 812.363 254.871 813.787 251.422C811.404 247.992 804.177 247.914 800.47 247.868C800.111 236.715 800.619 225.551 801.989 214.476C807.433 241.021 815.259 264.777 845.086 270.876C832.885 244.628 829.897 206.691 833.985 178.311Z"/><path fill="#2A2A28" d="M888.996 260.228C896.741 259.954 923.157 265.644 925.025 273.886C920.686 276.23 920.666 279.137 919.11 284.135C919.004 280.641 919.012 277.011 918.97 273.503C910.988 270.463 905.145 268.936 896.796 267.148C898.636 272.059 899.469 275.197 900.323 280.324C899.925 285.699 898.68 292.689 895.069 296.938C891.803 300.78 887.103 299.039 884.315 295.616C878.882 288.947 879.019 278.97 879.645 270.838C877.144 272.955 873.788 276.727 870.463 276.161C869.483 269.4 882.66 261.41 888.996 260.228Z"/><path fill="#2A2A28" d="M844.355 370.344C849.903 369.665 865.179 369.168 868.136 374.258C863.762 373.857 847.816 372.96 844.944 371.957L844.355 370.344Z"/><path fill="#2A2A28" d="M883.894 256.609C886.387 256.419 890.691 256.563 893.315 256.568C884.925 259.547 883.073 258.487 874.764 264.023L868.558 269.427C872.665 261.291 874.736 258.4 883.894 256.609Z"/><path fill="#2A2A28" d="M811.094 269.339C817.02 268.934 822.2 269.796 825.681 275.239L824.938 275.246C818.719 271.607 816.281 273.444 810.057 271.635L809.696 270.754L811.094 269.339Z"/><path fill="#BA694B" d="M952.264 254.642C964.215 258.991 969.175 260.919 981.765 263.297C983.493 285.91 982.635 320.377 982.084 343.417C981.403 380.234 979.337 417.012 975.89 453.673C972.507 486.362 970.117 515.81 950.816 543.507C955.55 530.382 959.132 518.01 961.11 504.159C962.314 495.722 962.795 487.49 964.22 479.04C961.752 485.215 958.586 498.792 956.807 505.634C951.111 523.704 936.042 549.037 916.085 554.712C914.437 555.18 913.156 554.213 911.988 553.264C921.321 549.687 927.001 540.532 931.269 531.976C956.719 480.954 968.664 328.761 957.975 271.212C956.94 265.64 954.086 260.043 952.264 254.642Z"/><path fill="#BA694B" d="M998.697 345.855C1000.88 348.118 1001.26 352.636 1001.45 355.682C1003.34 386.483 1007.84 419.244 1026.88 444.62C1030.12 448.947 1034.9 452.883 1039.1 456.453C1035.54 459.889 1029.14 464.936 1025.22 468.222C1015.88 476.18 1006.37 483.944 996.713 491.508C988.991 497.205 981.058 502.61 972.93 507.712C980.762 472.835 983.166 438.557 985.128 402.986C985.851 389.878 986.207 374.908 987.367 362.041C990.997 357.297 994.933 351 998.697 345.855Z"/><path fill="#BA694B" d="M953.146 398.981C954.082 401.898 952.588 413.934 952.105 417.626C948.206 447.44 941.886 493.295 930.632 521.238C912.79 525.865 888.762 522.534 885.387 500.882C885.595 492.088 886.541 488.277 889.813 480.368C894.385 478.392 909.749 471.856 913.979 472.113C916.668 475.629 917.132 483.634 919.366 486.341C924.186 480.805 913.95 441.833 912.612 433.553C932.677 419.357 936.004 417.291 953.146 398.981Z"/><path fill="#BA694B" d="M1021.73 259.042C1040.23 259.302 1045.01 279.352 1043.18 294.272C1040.43 316.721 1016.79 340.34 993.254 337.192L992.829 337.51L994.004 338.916C994.641 342.152 989.581 349.412 987.555 352.925C987.058 340.968 988.174 328.492 988.01 316.893C987.745 298.164 985.53 288.043 999.229 273.224C1006.79 265.046 1010.94 262.044 1021.73 259.042Z"/><path fill="#2A2A28" d="M1024.6 268.149C1032.27 270.723 1031.96 273.357 1033.92 280.551C1030.35 278.361 1028.5 277.398 1024.66 275.722C1021.18 278.501 1019.58 281.38 1017.34 285.104C1027.06 288.034 1025.99 295.49 1024.83 303.83L1023.91 304.512L1024.05 304.716C1021.72 301.903 1021.15 292.003 1016.42 289.628C1010.5 290.068 1010.71 297.75 1011 301.944C1013.13 313.821 1008.11 320.254 996.73 322.285C998.167 320.696 1002.39 316.128 1003.15 314.467C1007.47 304.97 999.784 295.77 1005.15 284.72C1009.37 276.03 1015.99 271.501 1024.6 268.149Z"/><path fill="#BA694B" d="M877.259 201.202C880.155 203.15 890.014 222.085 894.714 225.429C896.017 226.356 901.485 231.988 901.74 233.407C896.771 233.381 894.704 233.6 889.884 234.495C885.608 224.861 879.482 211.329 877.259 201.202Z"/><path fill="#BA694B" d="M804.163 477.637C804.39 477.834 815.711 506.896 815.7 507.116L814.021 508.217L808.232 512.136C804.993 498.762 803.68 491.352 804.163 477.637Z"/><path fill="#BA694B" d="M861.615 447.427C862.702 448.389 865.633 459.782 866.634 462.461C867.944 465.966 869.54 469.359 871.405 472.604C872.704 474.896 875.011 477.864 874.555 480.232L872.728 480.987C865.539 479.941 862.097 453.705 861.615 447.427Z"/><path fill="#BA694B" d="M987.495 268.166L993.331 272.86L989.675 278.473L988.673 279.866L987.88 279.913C987.125 277.117 987.449 271.288 987.495 268.166Z"/></svg>