<svg xmlns="http://www.w3.org/2000/svg" xmlns:xlink="http://www.w3.org/1999/xlink" width="882.901960849762" height="588.7058823108673" style=""><rect id="backgroundrect" width="100%" height="100%" x="0" y="0" fill="none" stroke="none"/><g class="currentLayer" style=""><title>Layer 1</title><path fill="#2A2A28" transform="translate(0, -0.980392) scale(0.556641)" d="M259.0674787698748,-5.632691823982007 L1286.0015054808978,-5.632691823982007 L1286.0015054808978,1032.6775888052177 L259.0674787698748,1032.6775888052177 L259.0674787698748,-5.632691823982007 z" id="svg_1" class=""/><path fill="#52ADAD" transform="translate(148.039, 6.86275) scale(0.556641)" d="M902.269 690.927C906.109 688.732 907.092 684.473 899.935 676.731C892.777 668.988 915.372 668.558 922.427 662.077C920.715 665.532 935.606 658.183 917.702 672.47C899.799 686.757 952.346 679.281 918.75 698.37C885.154 717.459 908.081 699.946 903.333 701.007C896.663 702.499 890.208 708.828 884.414 715.052C885.63 712.356 886.828 709.661 887.866 706.954C892.741 694.247 905.606 699.521 902.269 690.927Z" id="svg_2" class=""/><path fill="#BA694B" transform="translate(36.2745, -50.9804) scale(0.556641)" d="M462.71098876953124,325.4038536071777 C463.70998876953126,319.57385360717774 464.7219887695312,313.54885360717776 465.9619887695312,309.72285360717774 C468.52598876953124,301.81685360717773 469.78298876953124,305.13585360717775 471.2139887695313,306.75885360717774 C469.25898876953124,316.5648536071777 467.28498876953125,326.00085360717776 465.19398876953124,331.08785360717775 C463.64798876953125,332.51385360717774 463.31898876953124,329.33985360717776 462.71098876953124,325.4038536071777 z" id="svg_4" class=""/><path fill="#BA694B" transform="rotate(13.0625, 427.676, 151.788) translate(69.6078, -20.5882) scale(0.556641)" d="M422.71798876953125,304.3471776123047 C427.4719887695312,299.4471776123047 432.3659887695312,294.36917761230467 436.01898876953123,291.5141776123047 C443.5679887695312,285.61217761230466 442.52398876953123,289.5271776123047 442.75798876953127,291.9441776123047 C434.5119887695313,300.01817761230467 426.4909887695312,307.7311776123047 421.23198876953126,311.2551776123047 C418.8819887695313,311.6521776123047 420.6759887695313,308.44617761230467 422.71798876953125,304.3471776123047 z" id="svg_5" class=""/><path fill="#BA694B" transform="translate(0.980392, 0.980392) scale(0.556641)" d="M507.7938687389188,287.25396162116334 C502.06822363874244,288.7601473984544 496.15785394290015,290.33781659164634 492.2050745418362,290.7546353829555 C484.0355066936903,291.6154567997897 486.68458817401455,288.971577220133 487.70711237391754,286.87942879418983 C497.4296746104054,284.61511608488 506.8162996397309,282.52498127628616 512.2199027456932,282.404164235327 C514.0565229512744,283.3082784251716 511.23170789542723,284.98260125113075 507.7938687389188,287.25396162116334 z" id="svg_6" class=""/><path fill="#BA694B" transform="rotate(-14.2057, 391.458, 143.044) translate(24.5098, 41.1765) scale(0.556641)" d="M451.40405955863,181.15722844433785 C447.0461377315521,176.57779216229918 442.53024344456196,171.86156408536434 439.98768111491205,168.414410853982 C434.7322286077738,161.28976465916634 438.20321008729934,162.51647817468643 440.344222309351,162.4988276205063 C447.5253502775431,170.40804094862938 454.3861206873655,178.09044465553762 457.52703680372235,183.0078890501261 C457.8879906367064,185.1127176361084 455.0418387751579,183.27970758450033 451.40405955863,181.15722844433785 z" id="svg_7" class=""/><path fill="#BA694B" transform="translate(37.2549, 36.2745) scale(0.556641)" d="M431.32422360116243,207.10385360717774 C425.5711560744643,205.75385360717775 419.62424763166905,204.38085360717773 415.8496660798192,202.87885360717775 C408.04777368044853,199.77285360717772 411.3258934767246,198.61685360717775 412.9297839259505,197.19085360717773 C422.60710763591527,199.75085360717773 431.91965055018665,202.31185360717774 436.93824912053344,204.77485360717773 C438.3450270770192,206.47785360717774 435.2108566530347,206.66285360717774 431.32422360116243,207.10385360717774 z" id="svg_8" class=""/><path fill="#333331" transform="translate(148.039, 6.86275) scale(0.556641)" d="M233.128 794.747C169.551 793.078 240.61 785.643 142.732 781.061C44.8536 776.48 217.129 764.964 236.029 754.738C241.788 759.187 320.268 746.107 256.637 767.909C193.007 789.71 346.261 761.837 407.097 794.449C467.932 827.062 323.107 769.673 294.875 799.082C266.643 828.49 243.981 819.353 233.406 828.692C227.992 825.28 222.435 821.878 215.579 818.542C183.408 802.882 296.705 796.416 233.128 794.747Z" id="svg_11" class=""/><path fill="#4a4946" transform="translate(148.039, 6.86275) scale(0.556641)" d="M229.346 785.292C165.769 783.624 236.828 776.188 138.95 771.607C41.0716 767.025 213.347 755.509 232.247 745.284C238.006 749.732 316.486 736.653 252.856 758.454C189.225 780.255 342.479 752.382 403.315 784.995C464.15 817.607 319.325 760.218 291.093 789.627C262.861 819.036 240.199 809.898 229.624 819.238C224.21 815.826 218.653 812.423 211.797 809.088C179.626 793.427 292.923 786.961 229.346 785.292Z" id="svg_12" class="" opacity="1" fill-opacity="1"/><path fill="#BA694B" transform="translate(148.039, 6.86275) scale(0.556641)" d="M450.528 678.084C473.709 670.756 459.626 681.949 462.631 681.015C465.635 680.081 468.759 677.829 469.142 682.233C469.525 686.637 472.346 685.522 464.398 685.676C456.449 685.829 456.338 684.074 453.502 682.968C449.856 685.546 449.627 693.222 442.263 690.608C434.899 687.995 433.402 697.823 427.833 700.258C424.373 701.772 397.671 706.495 410.929 701.845C424.187 697.194 403.804 677.997 399.499 674.406C395.193 670.815 427.348 685.411 450.528 678.084Z" id="svg_13" class=""/><path fill="#333331" transform="translate(148.039, 6.86275) scale(0.556641)" d="M718.067 386.251C727.099 402.46 752.845 408.214 742.613 436.637C732.381 465.061 800.498 491.663 803.179 515.233C797.553 505.797 771.534 504.853 765.133 495.956C759.01 485.804 752.795 474.585 745.59 465.194L706.312 418.236C696.621 428.181 685.969 437.558 675.83 447.082C690.199 426.975 703.846 406.446 718.067 386.251Z" id="svg_14" class=""/><path fill="#333331" transform="translate(148.039, 6.86275) scale(0.556641)" d="M538.018 490.795C558.129 491.48 579.474 499.318 599.952 508.121L610.43 542.992C657.369 551.172 708.56 570.651 754.206 575.54C736.097 586.945 718.522 598.988 701.203 612.21C676.378 629.532 652.359 648.88 630.708 672.527C613.399 650.548 594.357 631.709 576.138 611.662C557.16 590.779 538.307 567.44 518.273 549.437C526.458 530.271 534.204 514.193 538.018 490.795Z" id="svg_15" class=""/><path fill="#333331" transform="translate(148.039, 6.86275) scale(0.556641)" d="M586.346 452.61C601.619 458.859 615.926 471.415 629.308 484.531L628.025 516.545C661.91 536.611 696.039 567.293 729.812 584.252C712.841 588.643 696.109 593.716 679.258 599.846C655.542 607.272 631.901 616.614 608.93 630.206C601.511 607.006 591.92 585.933 583.285 564.085C574.289 541.327 566.048 516.558 555.47 495.901C566.893 482.241 577.15 471.031 586.346 452.61Z" id="svg_16" class=""/><path fill="#333331" transform="translate(148.039, 6.86275) scale(0.556641)" d="M634.026 367.933C646.849 374.592 658.767 388.201 669.895 402.439L668.363 437.668C696.725 459.264 725.145 492.531 753.456 510.711C739.048 515.778 724.834 521.592 710.504 528.569C690.353 537.068 670.239 547.674 650.632 562.945C644.685 537.532 636.873 514.489 629.879 490.581C622.593 465.676 615.974 438.549 607.322 415.978C617.168 400.795 625.995 388.321 634.026 367.933Z" id="svg_17" class=""/><path fill="#333331" transform="translate(148.039, 6.86275) scale(0.556641)" d="M697.089 366.82C705.942 376.895 711.829 391.106 716.842 405.374L704.419 427.699C721.832 454.469 735.613 488.888 754.061 513.404C740.155 510.28 726.179 507.729 711.737 505.887C691.842 502.439 671.314 500.383 649.747 501.601C652.685 482.348 653.281 463.809 654.85 445.071C656.484 425.552 659.389 404.879 659.119 386.274C672.32 380.754 683.796 376.55 697.089 366.82Z" id="svg_18" class=""/><path fill="#333331" transform="translate(148.039, 6.86275) scale(0.556641)" d="M740.38 502.288C744.371 509.387 745.875 519.145 746.823 528.907L735.637 543.4C742.423 562.026 745.766 585.641 753.543 602.796C745.329 600.163 736.982 597.913 728.236 596.12C716.327 593.04 703.809 590.869 690.14 590.853C694.926 578.054 698.138 565.644 701.989 553.138C706.001 540.11 710.983 526.357 713.664 513.869C722.762 510.677 730.58 508.3 740.38 502.288Z" id="svg_19" class=""/><path fill="#333331" transform="translate(148.039, 6.86275) scale(0.556641)" d="M652.979 468.05C664.491 472.763 675.276 482.235 685.362 492.129L684.395 516.281C709.937 531.418 735.663 554.563 761.12 567.355C748.327 570.669 735.714 574.497 723.012 579.121C705.134 584.724 687.313 591.773 669.997 602.027C664.405 584.525 657.176 568.628 650.667 552.147C643.887 534.978 637.676 516.293 629.703 500.71C638.313 490.404 646.046 481.947 652.979 468.05Z" id="svg_20" class=""/><path fill="#333331" transform="translate(148.039, 6.86275) scale(0.556641)" d="M663.711 204.617C654.709 206.462 636.337 224.956 631.795 231.19C639.33 227.697 662.728 170.36 653.597 219.813C644.466 269.266 615.675 246.166 594.115 257.232C575.27 266.902 556.339 276.306 538.439 286.845C543.928 302.844 548.936 319.168 558.045 334.815C571.758 339.653 585.544 344.304 599.399 348.766L599.693 349.193C585.907 348.565 554.801 335.505 537.359 332.606C534.404 332.115 531.323 331.599 529.117 332.818L529.466 334.001C536.841 341.009 551.037 343.933 561.32 346.795C562.539 352.753 563.67 358.694 564.996 364.659C554.859 362.093 536.165 355.428 526.738 355.422C525.058 355.421 524.26 355.604 523.278 356.452L523.901 357.62C527.343 360.1 531.383 361.582 535.541 363.052C552.372 368.998 569.96 373.442 587.071 378.574C617.694 387.761 648.213 397.199 678.937 406.047C673.684 394.552 639.155 341.113 640.962 335.189C658.779 334.223 677.742 338.088 696.061 340.14C715.067 342.266 750.558 343.634 767.977 342.266C721.118 335.078 675.848 338.637 628.659 326.732C636.384 342.79 645.508 358.569 654.282 374.469C646.339 372.128 658.165 357.167 650.245 354.741C642.8 339.028 633.424 326.919 613.102 320.11C592.781 313.302 694.219 378.649 715.856 380.423C741.798 382.512 730.528 329.823 756.626 334.925C748.113 326.752 736.267 319.524 726.415 312.107C703.634 294.955 681.142 277.643 658.005 260.743C659.043 241.864 660.945 223.144 663.711 204.617Z" id="svg_21" class=""/><path fill="#BA694B" transform="translate(148.039, 6.86275) scale(0.556641)" d="M883.646 172.463C885.785 173.794 886.843 176.753 887.978 178.684C890.444 182.878 896.293 184.31 901.281 185.729C899.256 186.174 897.241 186.615 895.321 187.317C888.987 189.628 886.755 193.82 884.436 198.793C881.905 196.955 880.452 193.197 878.524 190.858C875.813 187.572 871.076 186.441 866.589 185.653C868.133 185.236 869.67 184.808 871.163 184.282C878.171 181.811 880.96 178.024 883.646 172.463Z" id="svg_22" class=""/><path fill="#BA694B" transform="translate(148.039, 6.86275) scale(0.556641)" d="M443.387 718.124C447.099 720.54 450.827 718.346 452.798 704.833C454.77 691.32 467.232 715.044 475.891 717.62C472.375 718.427 485.897 728.684 465.545 720.502C445.193 712.32 479.041 762.563 446.65 741.333C414.259 720.102 439.734 731.177 436.386 726.931C431.682 720.965 423.459 718.913 415.67 717.483C418.349 716.726 421.018 715.949 423.609 714.993C435.774 710.509 438.724 728.218 443.387 718.124Z" id="svg_23" class=""/><path fill="#52ADAD" transform="translate(148.039, 6.86275) scale(0.556641)" d="M874.738 600.167C878.435 604.161 882.736 601.179 886.586 580.907C890.435 560.635 900.856 597.673 909.87 602.358C905.974 603.261 919.255 620.012 898.34 605.78C877.426 591.547 907.538 670.665 875.299 635.59C843.059 600.514 869.132 619.59 866.061 612.859C861.747 603.404 853.137 599.55 844.915 596.678C847.902 595.776 850.88 594.842 853.798 593.632C867.495 587.95 868.42 615.02 874.738 600.167Z" id="svg_24" class="" opacity="1"/><path fill="#52ADAD" transform="translate(148.039, 6.86275) scale(0.556641)" d="M831.781 767.733C836.7 765.736 841.075 768.579 841.88 783.044C842.684 797.509 924.029 770.251 872.205 772.975C820.38 775.699 886.018 762.816 859.67 768.45C833.321 774.085 881.617 726.27 838.68 743.852C795.743 761.433 828.826 753.507 824.137 757.477C817.549 763.054 807.056 764.016 797.18 764.387C800.425 765.57 803.654 766.772 806.764 768.15C821.369 774.62 827.206 756.465 831.781 767.733Z" id="svg_25" class=""/><path fill="#BA694B" transform="translate(148.039, 6.86275) scale(0.556641)" d="M906.197 407.898C908.685 409.612 909.916 413.42 911.237 415.907C914.107 421.305 920.912 423.148 926.716 424.975C924.359 425.548 922.015 426.116 919.781 427.019C912.411 429.994 909.814 435.39 907.116 441.792C904.171 439.427 902.481 434.589 900.236 431.578C897.083 427.347 891.572 425.892 886.351 424.878C888.146 424.341 889.935 423.79 891.672 423.112C899.826 419.932 903.071 415.057 906.197 407.898Z" id="svg_26" class=""/><path fill="#BA694B" transform="translate(148.039, 6.86275) scale(0.556641)" d="M742.632 226.358C748.333 241.187 755.979 256.632 769.36 269.069C782.74 281.507 751.21 267.46 748.977 272.297L748.936 273.464C746.217 262.177 736.93 211.529 742.632 226.358Z" id="svg_27" class=""/><path fill="#2A2A28" transform="translate(148.039, 6.86275) scale(0.556641)" d="M621.742 815.897C632.286 823.463 642.998 831.385 652.063 840.691C660.758 851.491 659.772 868.357 662.42 881.432C651.823 875.881 642.294 867.989 632.798 860.763C631.659 854.91 630.633 848.953 628.894 843.242C625.809 836.69 625.224 824.007 621.742 815.897Z" id="svg_28" class=""/><path fill="#BA694B" transform="translate(148.039, 6.86275) scale(0.556641)" d="M766.081 149.385C779.03 162.242 789.238 177.373 800.797 191.407C815.402 209.135 830.981 225.571 844.487 244.228C842.304 252.069 840.743 260.085 839.042 268.044C848.339 261.959 856.942 254.981 866.173 248.836C882.458 237.99 899.368 227.905 914.744 215.768C906.035 232.768 894.827 248.083 884.139 263.845C875.178 277.064 865.242 294.664 852.965 304.924C862.842 311.756 872 319.696 882.03 326.246C875.928 328.621 869.782 330.892 863.6 333.059C871.515 337.318 878.22 343.935 884.833 349.928C876.026 351.584 867.331 353.787 858.798 356.523C851.312 371.02 847.038 386.961 846.266 403.258C845.734 402.565 845.193 401.877 844.643 401.196C843.499 399.782 842.075 397.896 840.152 397.695C837.181 402.782 850.17 421.52 852.194 427.073C853.948 431.882 854.4 437.153 854.301 442.24C854.122 451.478 852.435 460.818 851.15 469.962C848.698 487.428 846.029 504.834 845.526 522.493C836.033 511.996 826 501.645 815.242 492.449C811.081 501.861 803.671 510.159 797.387 518.25C789.175 504.243 777.279 491.667 767.378 478.795C757.871 466.439 749.704 453.204 741.291 440.097C737.301 433.883 732.763 427.888 729.109 421.487C736.491 427.542 742.403 435.54 748.47 442.866C755.651 451.537 763.155 459.938 770.195 468.726C774.162 473.675 777.624 479.025 781.669 483.914C784.835 488.238 790.03 498.208 793.147 501.203C794.25 502.263 795.502 502.748 796.929 503.226C796.884 502.143 796.796 501.349 796.246 500.393C794.365 497.13 791.304 494.179 788.983 491.188C786.822 488.4 785.084 485.313 783.335 482.259C782.444 479.751 780.672 477.153 779.321 474.831C772.829 463.676 764.863 453.936 757.719 443.272C749.636 431.206 742.66 416.946 732.674 406.399C717.924 402.136 682.959 403.021 666.18 403.115L632.618 337.288C626.199 324.502 620.616 310.64 612.544 298.789C625.711 304.708 638.823 310.969 651.903 317.093C662.61 322.105 674.257 328.521 685.897 330.784C688.652 331.32 690.291 331.584 692.671 329.996C681.531 320.943 654.325 300.822 647.613 290.245C646.789 290.056 646.061 289.862 645.312 289.458C637.925 285.461 633.797 278.043 631.995 270.072C631.533 268.026 631.474 265.773 630.811 263.793C630.746 263.597 630.676 263.403 630.61 263.209C606.082 269.98 596.444 270.986 580.473 292.208C574.832 299.818 569.617 307.734 564.849 315.918C563.302 318.635 561.746 321.421 561.31 324.552C561.54 325.23 561.719 325.769 562.099 326.381L565.117 326.913C573.693 328.454 597.637 337.464 602.723 344.96C605.065 348.417 606.756 352.563 608.644 356.302C611.599 362.219 614.714 368.053 617.987 373.8C630.642 396.169 644.186 417.957 655.904 440.855C664.006 456.686 672.489 476.476 683.094 490.577C669.196 505.094 655.694 519.984 642.598 535.229C634.569 526.165 625.958 518.336 616.507 510.8C607.223 503.397 596.665 496.153 589.006 487.04C582.011 494.854 575.511 502.825 569.373 511.332C561.813 521.805 554.618 533.389 545.334 542.427C550.164 545.781 555.126 549.613 558.73 554.318L560.14 555.486C567.632 558.369 572.34 565.62 578.048 570.844C581.749 574.234 585.796 577.24 589.497 580.633C594.378 585.112 598.898 589.982 603.691 594.554C609.81 600.391 616.252 605.885 622.331 611.765C630.363 619.534 637.657 627.938 646.034 635.369C673.298 616.532 702.597 601.023 730.579 583.351L730.706 573.645C722.374 577.103 714.27 582.893 706.713 587.805C695.17 595.303 683.563 602.231 670.58 606.97C674.805 603.321 679.643 600.254 684.061 596.827C689.896 592.3 695.4 587.363 701.332 582.956C709.574 576.835 725.534 566.797 731.26 558.421C733.552 555.069 734.03 550.039 735.167 546.139C719.423 552.383 703.624 563.976 688.273 571.857C684.686 573.699 680.892 575.937 677.056 577.195C675.757 577.62 674.859 578.01 673.614 577.416C675.127 572.511 707.259 550.652 713.532 546.565C721.573 541.324 730.042 536.655 737.88 531.124L740.873 517.596C710.25 533.139 679.975 549.365 648.596 563.371C662.504 550.511 679.372 541.507 695.105 531.152C710.088 521.291 724.767 510.284 740.6 501.828C730.403 488.682 723.576 473.16 715.557 458.684C708.036 445.108 699.46 431.763 693.205 417.542C715.867 440.771 735.334 467.499 755.034 493.23C753.872 501.176 752.063 509.573 752.282 517.603C752.381 521.191 753.064 524.534 754.217 527.922C756.986 536.062 761.24 543.742 764.784 551.571C768.7 560.225 772.01 569.213 776.724 577.477C779.233 581.875 782.212 586.211 785.762 589.84C794.847 599.132 808.236 603.073 818.438 610.918C826.957 617.47 834.522 625.438 842.364 632.766C852.681 642.407 863.228 651.781 873.492 661.488C854.431 694.791 840.129 710.954 809.233 734.156C791.439 735.81 773.405 733.859 755.609 733.019C731.844 731.894 707.781 731.298 683.998 732.164C692.436 719.197 701.783 707.155 711.155 694.861C716.642 687.663 722.602 680.482 727.146 672.648C706.443 669.071 686.322 662.187 666.221 656.194C670.422 659.328 674.823 662.21 679.055 665.307C669.099 679.523 660.771 695.08 648.49 707.527C632.282 723.955 607.438 734.727 589.015 749.608C565.203 734.219 541.137 719.225 516.829 704.631C507.315 698.927 497.761 692.47 487.828 687.551C492.564 680.556 512.532 655.435 512.365 648.668C512.338 647.534 512.375 647.47 511.533 646.649C506.752 647.048 501.241 659.95 498.066 663.534C497.969 663.644 497.869 663.75 497.77 663.857C483.764 666.015 469.707 666.198 455.592 667.03C439.445 667.979 423.363 669.285 407.189 669.856C403.136 667.389 399.57 664.192 396.212 660.863C389.564 654.266 383.8 646.674 377.545 639.695C367.715 628.729 356.788 618.191 348.451 606.007C347.165 607.794 345.682 609.49 344.168 611.087C341.333 614.069 338.193 616.421 334.1 617.253C321.793 619.752 308.966 617.921 296.502 618.167L199.292 619.91C198.334 603.652 194.928 587.665 192.027 571.678C189.584 558.215 187.478 544.693 184.659 531.302C203.846 517.409 222.833 503.242 241.613 488.805C244.342 496.498 249.502 504.219 253.772 511.192C263.976 509.718 274.214 509.384 284.296 507.043C290.487 501.241 295.187 493.647 300.086 486.741C294.657 475.188 290.049 463.299 285.216 451.492C294.702 445.458 302.265 437.438 310.608 430.03C320.402 421.333 330.375 412.904 339.946 403.952C333.8 403.609 327.597 402.597 321.468 401.936C305.477 400.208 289.301 398.146 273.464 395.345C281.007 401.156 287.42 408.333 294.213 414.97C298.643 419.299 303.442 423.232 308.202 427.189C289.876 424.777 268.976 423.435 251.765 416.314C241.942 412.248 234.345 405.019 226.034 398.632C215.14 390.261 202.349 380.263 191.06 372.736C199.938 362.306 207.033 350.571 214.783 339.316C222.175 328.58 230.082 318.198 237.532 307.5C245.126 296.594 252.515 284.713 262.474 275.788C261.743 284.615 263.139 293.897 264.186 302.662C277.754 295.031 290.377 285.858 303.301 277.208C318.085 267.314 333.161 258.156 346.665 246.491C338.243 260.177 329.546 274.154 320.285 287.286C311.696 299.464 302.531 310.949 294.599 323.611C303.21 323.992 311.849 325.059 320.449 325.729C336.184 326.954 350.319 326.291 364.824 333.849C374.915 339.107 383.984 346.532 393.453 352.831C402.225 358.664 407.726 369.001 417.892 372.073C415.46 380.747 429.758 379.997 415.976 395.366C402.193 410.735 409.839 426.077 406.575 441.394C417.208 442.833 427.699 445.532 438.22 447.616C452.647 450.476 467.159 452.89 481.585 455.755C490.855 457.597 514.089 464.032 521.961 462.602C526.668 461.747 529.974 455.114 532.361 451.392C519.673 444.544 511.838 434.174 502.022 424.11C496.681 418.633 490.941 413.813 486.222 407.721C487.972 407.423 489.693 407.207 491.331 406.49C490.225 400.501 472.146 389.438 466.795 385.534L479.189 376.64C464.722 368.622 450.012 356.587 438.999 344.321C451.047 336.177 463.349 328.894 474.848 319.925C463.879 319.648 453.249 316.725 442.547 314.587C434.235 312.873 425.808 311.783 417.334 311.325C438.502 306.365 458.633 296.213 478.716 288.08C491.258 282.999 504.404 278.817 516.529 272.826C519.161 271.525 521.523 270.149 523.63 268.067C528.838 262.918 532.119 255.705 535.733 249.4C539.966 242.013 544.355 234.444 549.505 227.651C552.435 223.789 555.793 220.546 560.124 218.274C568.307 213.98 578.014 212.723 586.887 210.495C598.727 207.52 610.18 204.137 622.324 202.513C619.563 185.631 618.399 169.854 611.281 153.936C622.267 158.953 631.405 166.833 641.22 173.703C655.281 183.546 669.459 192.821 683.213 203.142C678.924 186.226 678.52 167.274 678.015 149.903C688.983 159.91 700.441 169.364 712.35 178.228C720.202 184.106 729.499 189.571 736.213 196.723C738.548 199.213 739.949 202.015 740.887 205.29C743.86 215.672 741.678 227.321 744.162 237.967C747.056 250.368 756.533 260.743 767.087 267.383C768.514 247.806 767.445 228.686 767.055 209.108C766.658 189.201 766.78 169.284 766.081 149.385Z" id="svg_29" class=""/><path fill="#333331" transform="translate(148.039, 6.86275) scale(0.556641)" d="M766.714 148.748Q775.453 157.425 790.415 176.8Q797.706 186.241 801.49 190.836Q806.493 196.909 816.754 208.78Q836.328 231.425 845.215 243.701L845.469 244.051L845.353 244.468Q843.589 250.805 840.87 263.74Q840.239 266.74 839.92 268.231L839.042 268.044L838.55 267.292Q843.368 264.139 852.648 257.338Q861.232 251.046 865.675 248.088Q870.198 245.076 879.299 239.195Q903.096 223.818 914.188 215.062L915.544 216.177Q908.419 230.086 890.835 255.653Q886.856 261.439 884.883 264.349Q883.021 267.096 879.16 273.05Q863.367 297.402 853.541 305.613L852.965 304.924L853.476 304.185Q857.902 307.246 866.448 313.799Q876.997 321.886 882.521 325.494L883.984 326.45L882.356 327.083Q873.216 330.641 863.897 333.906L863.6 333.059L864.026 332.268Q870.975 336.007 882.762 346.819Q884.548 348.458 885.436 349.262L886.776 350.476L884.999 350.811Q871.832 353.287 859.072 357.378L858.798 356.523L859.596 356.935Q848.326 378.761 847.163 403.301L847.047 405.753L845.553 403.805Q844.749 402.757 843.945 401.76Q843.892 401.696 843.766 401.538Q841.511 398.74 840.059 398.588L840.152 397.695L840.928 398.148Q839.111 401.259 848.899 418.759Q852.404 425.025 853.038 426.765Q855.376 433.177 855.2 442.258Q855.054 449.707 852.843 464.583Q852.297 468.257 852.04 470.087Q851.819 471.661 851.352 474.96Q846.877 506.558 846.423 522.519L846.36 524.755L844.859 523.096Q828.335 504.823 814.658 493.132L815.242 492.449L816.064 492.812Q812.641 500.554 801.732 514.208Q799.273 517.286 798.096 518.801L797.283 519.848L796.612 518.704Q791.025 509.176 776.467 491.508Q769.796 483.412 766.666 479.343Q758.533 468.773 744.233 446.366Q741.77 442.506 740.535 440.582Q739.045 438.262 735.902 433.667Q730.631 425.964 728.329 421.933L729.679 420.793Q735.753 425.774 745.776 438.144Q748.04 440.938 749.162 442.293Q752.117 445.861 758.119 452.887Q766.734 462.969 770.896 468.164Q772.749 470.476 776.226 475.26Q780.211 480.743 782.361 483.341L782.378 483.362L782.394 483.383Q783.661 485.114 786.861 490.397Q791.962 498.819 793.769 500.555Q794.832 501.576 797.214 502.374L796.929 503.226L796.031 503.263Q795.967 501.709 795.467 500.841Q794.285 498.79 790.916 494.901Q789.096 492.799 788.273 491.738Q786.181 489.04 782.816 483.162Q782.633 482.841 782.555 482.706L782.515 482.636L782.488 482.56Q781.837 480.727 779.558 476.974Q778.866 475.835 778.545 475.282Q774.5 468.332 765.223 455.486Q759.651 447.77 756.972 443.772Q754.406 439.94 749.477 431.806Q738.779 414.153 732.021 407.016L732.674 406.399L732.424 407.262Q719.434 403.507 672.38 403.961Q668.046 404.003 666.185 404.013L665.631 404.016L631.818 337.696Q630.002 334.079 626.518 326.706Q617.566 307.758 611.802 299.294L610.011 296.665L612.912 297.97Q622.835 302.431 642.523 311.695Q648.975 314.73 652.284 316.28Q654.279 317.214 658.36 319.191Q676.71 328.083 686.068 329.903Q690.037 330.674 692.173 329.248L692.671 329.996L692.105 330.693Q689.979 328.965 684.193 324.419Q652.361 299.405 646.855 290.726L647.613 290.245L647.413 291.12Q645.831 290.758 644.885 290.248Q634.345 284.545 631.118 270.27Q630.925 269.412 630.678 267.661Q630.329 265.184 629.959 264.078Q629.92 263.96 629.838 263.725Q629.786 263.578 629.76 263.5L630.61 263.209L630.849 264.075Q628.735 264.659 624.818 265.716Q607.441 270.406 600.861 274.086Q591.148 279.517 581.191 292.748Q572.763 304.117 565.625 316.371Q562.622 321.644 562.2 324.676L561.31 324.552L562.16 324.263L562.174 324.303Q562.544 325.395 562.862 325.909L562.099 326.381L562.254 325.497L565.273 326.028Q573.271 327.466 585.59 332.881Q599.873 339.16 603.466 344.456Q605.178 346.983 607.867 352.641Q608.912 354.84 609.446 355.897Q613.867 364.75 618.768 373.355Q622.975 380.791 631.56 395.494Q648.861 425.124 656.704 440.446Q658.655 444.258 662.65 452.441Q675.811 479.4 683.812 490.037L684.271 490.647L683.743 491.198Q662.926 512.944 643.279 535.814L642.608 536.595L641.925 535.824Q631.045 523.541 615.947 511.502Q613.935 509.898 609.761 506.681Q594.372 494.821 588.319 487.617L589.006 487.04L589.676 487.639Q578.86 499.721 570.101 511.857Q568.385 514.235 564.975 519.126Q553.192 536.03 545.96 543.071L545.334 542.427L545.846 541.689Q555.121 548.129 559.443 553.772L558.73 554.318L559.303 553.626L560.713 554.794L560.14 555.486L560.463 554.648Q565.928 556.751 573.796 565.22Q576.99 568.658 578.654 570.181Q580.482 571.856 584.329 575.032Q588.23 578.253 590.104 579.971Q592.895 582.532 598.226 587.892Q602.251 591.94 604.311 593.904Q607.178 596.639 613.079 601.98Q619.726 607.995 622.956 611.119Q626.18 614.237 632.386 620.674Q641.632 630.263 646.63 634.697L646.034 635.369L645.524 634.63Q662.096 623.181 696.668 602.778Q719.079 589.553 730.099 582.592L730.579 583.351L729.681 583.339L729.808 573.633L730.706 573.645L731.051 574.474Q724.234 577.304 711.164 585.952Q708.512 587.707 707.202 588.558Q686.125 602.253 670.888 607.814L669.993 606.29Q672.588 604.049 678.19 600.033Q681.784 597.456 683.51 596.117Q686.047 594.149 690.995 590.057Q697.429 584.737 700.796 582.235Q702.567 580.92 707.002 577.8Q726.114 564.358 730.518 557.914Q732.039 555.69 733.396 549.604Q733.962 547.063 734.305 545.887L735.167 546.139L735.498 546.974Q726.014 550.736 707.015 562.164Q694.74 569.547 688.684 572.656Q687.894 573.062 686.269 573.925Q680.39 577.047 677.336 578.048Q677.231 578.083 677.03 578.15Q674.698 578.929 673.227 578.226L672.527 577.892L672.756 577.151Q674.721 570.779 713.042 545.812Q716.268 543.709 722.856 539.689Q732.689 533.688 737.362 530.39L737.88 531.124L737.003 530.93L739.996 517.402L740.873 517.596L741.279 518.397Q734.185 521.998 719.632 529.48Q672.94 553.488 648.962 564.191L647.986 562.711Q658.266 553.207 681.948 538.442Q690.447 533.143 694.612 530.402Q698.92 527.567 707.521 521.681Q728.865 507.077 740.177 501.036L740.6 501.828L739.89 502.379Q732.432 492.764 721.174 471.156Q716.967 463.082 714.771 459.119Q712.55 455.109 707.907 447.103Q696.804 427.956 692.382 417.904L693.848 416.915Q713.265 436.814 747.197 481.462Q752.895 488.958 755.748 492.684L755.978 492.985L755.923 493.36Q755.66 495.163 755.066 498.812Q753.012 511.445 753.18 517.579Q753.315 522.486 755.067 527.633Q756.95 533.168 762.112 543.831Q764.485 548.732 765.602 551.201Q766.798 553.842 769.074 559.184Q774.251 571.33 777.504 577.032Q781.725 584.429 786.404 589.212Q791.55 594.476 804.774 601.567Q814.611 606.842 818.986 610.206Q825.163 614.957 836.45 625.869Q840.793 630.068 842.977 632.109Q847.604 636.433 856.89 644.919Q868.399 655.435 874.109 660.835L874.622 661.321L874.271 661.934Q859.937 686.982 846.473 702.205Q833.021 717.416 809.772 734.874L809.569 735.027L809.316 735.05Q795.612 736.325 768.068 734.627Q759.72 734.112 755.567 733.916Q714.239 731.961 684.03 733.061L682.301 733.124L683.245 731.674Q690.917 719.885 707.81 697.763Q709.547 695.49 710.441 694.317Q711.556 692.854 713.818 689.938Q722.775 678.394 726.369 672.197L727.146 672.648L726.993 673.533Q710.432 670.672 678.174 660.767Q670.012 658.261 665.965 657.054L666.221 656.194L666.759 655.474Q669.025 657.165 673.675 660.4Q677.629 663.15 679.586 664.582L680.296 665.102L679.791 665.823Q676.866 669.999 671.28 678.612Q657.851 699.321 649.129 708.157Q639.712 717.702 615.208 732.933Q597.335 744.042 589.58 750.306L589.074 750.715L588.528 750.362Q552.865 727.316 516.366 705.401Q513.603 703.744 508.028 700.278Q494.429 691.823 487.429 688.356L486.507 687.9L487.084 687.048Q488.139 685.489 492.109 680.099Q511.589 653.651 511.467 648.69Q511.465 648.628 511.463 648.54Q511.447 647.82 510.906 647.292L511.533 646.649L511.607 647.544Q508.834 647.775 502.55 658.327Q499.822 662.907 498.739 664.13Q498.668 664.21 498.528 664.36Q498.465 664.428 498.432 664.464L498.219 664.697L497.907 664.745Q487.306 666.379 466.051 667.392Q459.113 667.722 455.645 667.927Q450.307 668.24 439.774 668.937Q418.112 670.368 407.221 670.754L406.952 670.763L406.722 670.623Q401.697 667.565 395.58 661.501Q391.355 657.308 383.652 648.17Q379.176 642.861 376.876 640.294Q374.27 637.386 368.879 631.607Q353.868 615.512 347.71 606.514L348.451 606.007L349.18 606.531Q347.462 608.919 344.82 611.705Q339.77 617.018 334.279 618.133Q325.852 619.844 308.662 619.262Q300.535 618.986 296.519 619.065L198.446 620.823L198.395 619.963Q197.602 606.493 192.635 579.903Q191.63 574.524 191.143 571.838Q190.357 567.505 188.858 558.852Q185.691 540.565 183.78 531.487L183.66 530.916L184.133 530.574Q212.917 509.732 241.066 488.093L242.047 487.34L242.46 488.505Q244.749 494.958 252.573 507.546Q253.894 509.671 254.538 510.722L253.772 511.192L253.644 510.303Q257.344 509.768 264.732 509Q277.706 507.652 284.093 506.169L284.296 507.043L283.682 506.388Q288.576 501.801 296.443 490.4Q298.379 487.594 299.353 486.222L300.086 486.741L299.273 487.123Q294.987 478.004 287.442 459.358Q285.409 454.335 284.385 451.833L284.1 451.138L284.734 450.735Q291.671 446.322 303.563 435.263Q307.823 431.302 310.011 429.358Q313.222 426.507 319.646 420.894Q332.893 409.318 339.333 403.296L339.946 403.952L339.896 404.849Q335.812 404.621 327.633 403.584Q323.445 403.053 321.371 402.829Q293.743 399.843 273.307 396.229L273.464 395.345L274.012 394.633Q279.572 398.917 289.419 408.899Q293.02 412.548 294.841 414.327Q298.917 418.311 307.713 425.615Q308.419 426.202 308.776 426.499L311.167 428.486L308.085 428.08Q304.767 427.643 297.923 426.835Q265.63 423.023 251.422 417.143Q243.663 413.932 230.94 403.673Q227.327 400.758 225.487 399.345Q224.26 398.402 221.778 396.49Q200.565 380.153 190.562 373.483L189.721 372.923L190.376 372.154Q196.834 364.566 207.88 347.964Q211.954 341.84 214.043 338.806Q217.966 333.109 226.079 321.943Q233.288 312.022 236.795 306.987Q238.004 305.25 240.417 301.72Q253.421 282.696 261.875 275.119L263.556 273.613L263.37 275.863Q262.734 283.531 264.687 299.353Q264.952 301.497 265.078 302.555L264.186 302.662L263.746 301.879Q273.89 296.173 293.147 283.014Q299.57 278.624 302.802 276.461Q305.885 274.398 312.037 270.361Q335.422 255.016 346.078 245.811L347.43 246.962Q331.043 273.589 321.02 287.804Q318.084 291.965 312.091 300.111Q300.568 315.774 295.36 324.088L294.599 323.611L294.639 322.714Q300.129 322.956 311.098 323.994Q317.379 324.589 320.519 324.833Q323.338 325.053 328.84 325.369Q353.17 326.763 365.239 333.053Q372.08 336.618 384.742 345.659Q390.855 350.024 393.95 352.083Q397.491 354.437 403.44 360.489Q412.218 369.42 418.152 371.213L418.995 371.468L418.757 372.316Q417.97 375.121 420.541 378.625Q423.138 382.163 422.936 384.932Q422.617 389.306 416.644 395.966Q410.719 402.574 409.037 410.814Q408.019 415.799 408.293 425.86Q408.577 436.309 407.453 441.582L406.575 441.394L406.695 440.504Q413.911 441.48 428.162 444.577Q434.981 446.058 438.394 446.734Q445.541 448.151 459.931 450.776Q474.513 453.435 481.76 454.874Q483.981 455.316 490.391 456.809Q515.986 462.774 521.801 461.718Q525.415 461.061 530.475 452.736Q531.248 451.463 531.605 450.907L532.361 451.392L531.935 452.182Q521.883 446.757 507.575 431.311Q503.512 426.924 501.379 424.737Q499.702 423.018 496.261 419.701Q488.78 412.489 485.512 408.271L484.595 407.087L486.071 406.835Q486.304 406.796 486.764 406.72Q489.651 406.245 490.971 405.667L491.331 406.49L490.448 406.654Q489.615 402.148 470.41 389.123Q467.276 386.997 466.265 386.26L465.262 385.528L478.665 375.91L479.189 376.64L478.753 377.425Q456.382 365.026 438.331 344.921L437.642 344.154L438.496 343.577Q442.318 340.993 450.02 335.995Q466.477 325.315 474.296 319.216L474.848 319.925L474.826 320.823Q466.267 320.607 449.652 317.005Q444.797 315.953 442.372 315.468Q429.947 312.906 417.285 312.222L417.129 310.45Q432.679 306.807 462.568 293.925Q473.123 289.376 478.379 287.247Q482.636 285.523 491.307 282.274Q508.161 275.959 516.131 272.021Q520.572 269.826 522.999 267.428Q527.001 263.471 532.653 253.104Q534.178 250.308 534.954 248.953Q543.389 234.232 548.789 227.109Q553.707 220.627 559.707 217.478Q565.912 214.222 579.789 211.198Q584.42 210.188 586.668 209.624Q589.129 209.005 594.004 207.737Q612.531 202.917 622.205 201.623L622.324 202.513L621.438 202.658Q620.899 199.364 619.948 192.898Q616.142 167.008 610.461 154.303L609.49 152.131L611.654 153.119Q619.835 156.855 634.103 167.42Q639.162 171.167 641.735 172.967Q646.299 176.162 655.511 182.473Q674.474 195.461 683.752 202.423L683.213 203.142L682.342 203.363Q678.182 186.955 677.171 151.797Q677.134 150.485 677.117 149.929L677.056 147.812L678.621 149.239Q695.06 164.239 712.886 177.508Q715.147 179.2 719.942 182.539Q732.032 190.957 736.868 196.108Q740.214 199.676 741.751 205.043Q743.344 210.606 743.626 222.341Q743.877 232.796 745.037 237.763Q749.054 254.977 767.565 266.622L767.087 267.383L766.191 267.317Q767.306 252.025 766.473 221.775Q766.24 213.343 766.157 209.126Q766.003 201.408 765.851 185.978Q765.612 161.608 765.183 149.417L765.104 147.149L766.714 148.748ZM765.448 150.023L766.081 149.385L766.979 149.354Q767.407 161.566 767.647 185.96Q767.799 201.376 767.953 209.09Q768.037 213.3 768.269 221.725Q769.104 252.066 767.983 267.448L767.874 268.939L766.609 268.143Q747.474 256.104 743.287 238.171Q742.086 233.024 741.83 222.384Q741.554 210.879 740.024 205.538Q738.606 200.588 735.558 197.338Q730.851 192.323 718.916 184.013Q714.095 180.657 711.814 178.949Q693.916 165.627 677.41 150.567L678.015 149.903L678.913 149.877Q678.928 150.382 678.967 151.745Q679.973 186.705 684.083 202.921L684.709 205.387L682.673 203.86Q673.426 196.921 654.496 183.955Q645.28 177.642 640.705 174.439Q638.113 172.625 633.034 168.864Q618.917 158.411 610.908 154.754L611.281 153.936L612.101 153.57Q617.884 166.501 621.726 192.636Q622.675 199.091 623.211 202.368L623.36 203.281L622.443 203.403Q612.876 204.683 594.456 209.475Q589.574 210.746 587.105 211.366Q584.83 211.937 580.171 212.953Q566.532 215.926 560.542 219.069Q554.896 222.031 550.221 228.194Q544.889 235.225 536.513 249.846Q535.746 251.185 534.23 253.964Q528.452 264.563 524.262 268.706Q521.629 271.307 516.927 273.631Q508.876 277.61 491.937 283.956Q483.291 287.196 479.053 288.913Q473.816 291.033 463.279 295.575Q433.244 308.519 417.539 312.199L417.334 311.325L417.382 310.428Q430.178 311.12 442.723 313.706Q445.163 314.194 450.033 315.249Q466.482 318.815 474.871 319.027L477.379 319.09L475.401 320.633Q467.52 326.78 450.998 337.502Q443.312 342.49 439.502 345.065L438.999 344.321L439.668 343.721Q457.517 363.602 479.624 375.854L480.865 376.542L467.318 386.264L466.795 385.534L467.324 384.809Q468.309 385.527 471.419 387.636Q491.245 401.083 492.214 406.327L492.344 407.028L491.691 407.313Q490.165 407.981 487.056 408.493Q486.599 408.568 486.373 408.606L486.222 407.721L486.932 407.171Q490.12 411.286 497.508 418.407Q500.969 421.744 502.665 423.483Q504.813 425.686 508.893 430.09Q522.999 445.318 532.788 450.601L533.64 451.061L533.117 451.877Q532.771 452.416 532.01 453.669Q526.531 462.684 522.122 463.486Q515.94 464.609 489.983 458.559Q483.602 457.072 481.41 456.637Q474.17 455.198 459.609 452.543Q445.207 449.916 438.045 448.497Q434.614 447.817 427.781 446.332Q413.6 443.251 406.454 442.284L405.494 442.155L405.696 441.207Q406.775 436.144 406.497 425.909Q406.218 415.642 407.277 410.454Q409.056 401.737 415.307 394.767Q420.87 388.564 421.144 384.801Q421.298 382.693 419.093 379.688Q416.005 375.479 417.027 371.831L417.892 372.073L417.633 372.933Q411.259 371.007 402.158 361.749Q396.34 355.83 392.955 353.579Q389.836 351.504 383.698 347.121Q371.138 338.152 364.409 334.646Q352.682 328.535 328.737 327.162Q323.216 326.845 320.379 326.625Q317.225 326.379 310.929 325.783Q300.005 324.749 294.56 324.508L293.02 324.44L293.838 323.134Q299.082 314.763 310.644 299.046Q316.626 290.916 319.551 286.768Q329.543 272.6 345.9 246.02L346.665 246.491L347.252 247.171Q336.506 256.454 313.023 271.863Q306.88 275.894 303.801 277.954Q300.577 280.112 294.16 284.497Q274.839 297.7 264.627 303.445L263.454 304.105L263.294 302.769Q263.167 301.704 262.904 299.573Q260.929 283.567 261.579 275.714L262.474 275.788L263.074 276.457Q254.782 283.889 241.9 302.734Q239.481 306.273 238.269 308.013Q234.752 313.064 227.533 322.999Q219.433 334.146 215.523 339.825Q213.443 342.846 209.376 348.959Q198.271 365.65 191.744 373.318L191.06 372.736L191.559 371.989Q201.613 378.692 222.874 395.067Q225.361 396.982 226.582 397.92Q228.439 399.347 232.068 402.274Q244.589 412.371 252.109 415.484Q266.087 421.267 298.134 425.051Q304.99 425.861 308.319 426.299L308.202 427.189L307.628 427.88Q307.233 427.552 306.565 426.997Q297.713 419.646 293.585 415.612Q291.753 413.822 288.14 410.16Q278.379 400.266 272.915 396.056L273.62 394.46Q293.996 398.063 321.564 401.043Q323.655 401.269 327.858 401.802Q335.975 402.83 339.996 403.055L342.095 403.172L340.56 404.608Q334.098 410.652 320.828 422.247Q314.412 427.853 311.204 430.701Q309.03 432.632 304.786 436.578Q292.773 447.749 285.698 452.25L285.216 451.492L286.047 451.152Q287.072 453.655 289.107 458.685Q296.634 477.284 300.899 486.359L301.122 486.834L300.818 487.261Q299.85 488.627 297.922 491.42Q289.945 502.98 284.911 507.699L284.735 507.864L284.499 507.918Q278.003 509.427 264.918 510.787Q257.566 511.551 253.9 512.081L253.315 512.165L253.006 511.661Q252.368 510.618 251.048 508.494Q243.121 495.741 240.767 489.106L241.613 488.805L242.161 489.518Q213.99 511.172 185.186 532.029L184.659 531.302L185.538 531.116Q187.456 540.226 190.628 558.545Q192.125 567.191 192.911 571.517Q193.398 574.201 194.401 579.574Q199.389 606.274 200.188 619.857L199.292 619.91L199.276 619.012L296.484 617.269Q300.548 617.189 308.723 617.466Q325.702 618.042 333.922 616.373Q338.859 615.369 343.516 610.469Q346.075 607.771 347.722 605.482L348.469 604.443L349.192 605.5Q355.274 614.386 370.193 630.382Q375.594 636.172 378.214 639.095Q380.533 641.683 385.025 647.012Q392.677 656.09 396.845 660.225Q402.811 666.14 407.656 669.089L407.189 669.856L407.157 668.958Q418.023 668.574 439.655 667.144Q450.203 666.447 455.539 666.133Q459.009 665.929 465.965 665.597Q487.125 664.589 497.633 662.97L497.77 663.857L497.108 663.25Q497.14 663.215 497.211 663.139Q497.336 663.004 497.394 662.938Q498.365 661.842 501.006 657.407Q507.764 646.062 511.458 645.754L511.866 645.72L512.16 646.005Q513.227 647.046 513.259 648.5Q513.262 648.612 513.262 648.646Q513.4 654.221 493.555 681.164Q489.607 686.525 488.572 688.055L487.828 687.551L488.227 686.746Q495.304 690.251 508.977 698.752Q514.542 702.213 517.291 703.86Q553.814 725.789 589.503 748.853L589.015 749.608L588.451 748.909Q596.293 742.575 614.26 731.407Q638.582 716.289 647.851 706.896Q656.442 698.19 669.773 677.635Q675.376 668.995 678.32 664.792L679.055 665.307L678.525 666.032Q676.586 664.614 672.649 661.875Q667.974 658.623 665.684 656.913L666.478 655.333Q670.529 656.54 678.701 659.05Q710.85 668.921 727.299 671.763L728.57 671.982L727.923 673.098Q724.268 679.4 715.237 691.04Q712.979 693.95 711.87 695.406Q710.95 696.612 709.238 698.854Q692.385 720.921 684.75 732.654L683.998 732.164L683.965 731.266Q714.249 730.161 755.652 732.122Q759.817 732.318 768.179 732.834Q795.585 734.524 809.15 733.262L809.233 734.156L808.693 733.438Q831.797 716.089 845.128 701.015Q858.468 685.93 872.712 661.042L873.492 661.488L872.874 662.141Q867.173 656.749 855.678 646.245Q846.386 637.754 841.75 633.422Q839.555 631.371 835.201 627.161Q823.987 616.319 817.891 611.63Q813.632 608.356 803.925 603.151Q790.459 595.929 785.12 590.468Q780.279 585.521 775.943 577.922Q772.639 572.13 767.422 559.888Q765.154 554.566 763.966 551.942Q762.857 549.494 760.495 544.614Q755.285 533.852 753.367 528.212Q751.527 522.807 751.384 517.628Q751.212 511.324 753.293 498.523Q753.885 494.883 754.146 493.1L755.034 493.23L754.321 493.776Q751.468 490.05 745.767 482.549Q711.9 437.99 692.562 418.17L693.205 417.542L694.027 417.181Q698.409 427.142 709.461 446.202Q714.113 454.224 716.342 458.248Q718.55 462.232 722.767 470.326Q733.951 491.79 741.31 501.278L741.962 502.119L741.023 502.621Q729.8 508.615 708.536 523.164Q699.922 529.057 695.599 531.903Q691.417 534.655 682.898 539.966Q659.361 554.641 649.206 564.03L648.596 563.371L648.23 562.55Q672.158 551.87 718.811 527.882Q733.362 520.401 740.466 516.795L742.16 515.935L738.682 531.657L738.398 531.858Q733.675 535.19 723.792 541.222Q717.226 545.229 714.022 547.317Q704.189 553.724 692.318 562.409Q675.355 574.819 674.472 577.68L673.614 577.416L674.001 576.605Q674.817 576.995 676.461 576.446Q676.67 576.376 676.776 576.341Q679.684 575.388 685.426 572.338Q687.059 571.471 687.863 571.058Q693.864 567.977 706.089 560.624Q725.215 549.12 734.836 545.304L736.544 544.626L736.029 546.39Q735.703 547.51 735.149 549.995Q733.718 556.418 732.001 558.928Q727.412 565.64 708.036 579.27Q703.62 582.376 701.868 583.677Q698.537 586.151 692.139 591.442Q687.17 595.551 684.611 597.536Q682.857 598.897 679.237 601.493Q673.7 605.462 671.167 607.65L670.58 606.97L670.272 606.126Q685.316 600.633 706.223 587.052Q707.525 586.205 710.172 584.454Q723.386 575.711 730.362 572.815L731.623 572.292L731.471 583.85L731.059 584.111Q720.018 591.084 697.581 604.325Q663.064 624.695 646.545 636.108L645.965 636.508L645.438 636.041Q640.388 631.561 631.093 621.921Q624.909 615.507 621.707 612.41Q618.5 609.308 611.874 603.312Q605.956 597.956 603.071 595.204Q600.993 593.222 596.952 589.159Q591.65 583.828 588.89 581.295Q587.049 579.607 583.185 576.417Q579.303 573.212 577.441 571.507Q575.723 569.934 572.479 566.443Q564.895 558.278 559.818 556.324L559.681 556.271L558.079 554.945L558.017 554.864Q553.865 549.445 544.821 543.165L543.926 542.544L544.707 541.784Q551.817 534.862 563.501 518.099Q566.92 513.195 568.644 510.806Q577.457 498.593 588.337 486.44L589.028 485.669L589.694 486.462Q595.623 493.517 610.857 505.258Q615.046 508.486 617.067 510.098Q632.286 522.233 643.27 534.633L642.598 535.229L641.916 534.643Q661.595 511.737 682.445 489.956L683.094 490.577L682.376 491.117Q674.272 480.342 661.035 453.229Q657.048 445.062 655.104 441.265Q647.284 425.984 630.009 396.399Q621.416 381.685 617.207 374.244Q612.282 365.597 607.842 356.707Q607.3 355.633 606.244 353.412Q603.614 347.877 601.979 345.465Q598.676 340.596 584.867 334.526Q572.743 329.196 564.961 327.798L561.546 327.196L561.335 326.854Q560.909 326.166 560.473 324.88L560.459 324.841L560.391 324.639L560.42 324.428Q560.891 321.055 564.073 315.466Q571.261 303.127 579.755 291.668Q589.941 278.134 599.984 272.518Q606.759 268.729 624.35 263.981Q628.261 262.926 630.371 262.343L631.185 262.118L631.459 262.918Q631.481 262.982 631.534 263.132Q631.621 263.381 631.663 263.508Q632.085 264.77 632.457 267.41Q632.694 269.089 632.871 269.874Q635.918 283.353 645.739 288.667Q646.469 289.062 647.814 289.369L648.174 289.451L648.372 289.763Q653.712 298.182 685.303 323.006Q691.099 327.56 693.238 329.299L694.183 330.067L693.17 330.743Q690.419 332.578 685.725 331.666Q676.136 329.802 657.577 320.808Q653.504 318.835 651.523 317.907Q648.205 316.354 641.758 313.32Q622.083 304.062 612.176 299.608L612.544 298.789L613.286 298.283Q619.131 306.864 628.143 325.938Q631.619 333.295 633.418 336.88L666.98 402.707L666.18 403.115L666.175 402.216Q668.032 402.206 672.363 402.164Q719.68 401.708 732.923 405.536L733.158 405.604L733.326 405.781Q740.216 413.057 751.013 430.875Q755.921 438.974 758.465 442.772Q761.125 446.743 766.68 454.435Q776.008 467.352 780.098 474.379Q780.412 474.919 781.094 476.042Q783.468 479.952 784.181 481.958L783.335 482.259L784.114 481.813Q784.21 481.98 784.375 482.269Q787.678 488.039 789.692 490.637Q790.485 491.659 792.274 493.724Q795.755 497.743 797.025 499.945Q797.743 501.195 797.826 503.189L797.88 504.492L796.643 504.078Q793.878 503.151 792.525 501.851Q790.547 499.951 785.324 491.327Q782.165 486.112 780.945 484.444L781.669 483.914L780.977 484.486Q778.791 481.845 774.773 476.316Q771.321 471.567 769.494 469.288Q765.349 464.114 756.754 454.054Q750.743 447.019 747.778 443.439Q746.648 442.074 744.38 439.275Q734.472 427.047 728.54 422.182L729.109 421.487L729.889 421.042Q732.154 425.01 737.384 432.653Q740.543 437.269 742.047 439.612Q743.283 441.537 745.748 445.399Q760.005 467.74 768.09 478.248Q771.203 482.294 777.854 490.366Q792.503 508.144 798.162 517.796L797.387 518.25L796.677 517.699Q797.859 516.177 800.328 513.087Q811.092 499.615 814.421 492.086L814.909 490.982L815.826 491.766Q829.591 503.532 846.192 521.891L845.526 522.493L844.628 522.468Q845.086 506.407 849.573 474.708Q850.036 471.439 850.261 469.837Q850.519 468.003 851.066 464.319Q853.261 449.557 853.403 442.223Q853.573 433.477 851.35 427.38Q850.765 425.775 847.331 419.636Q837.041 401.24 839.377 397.242L839.669 396.741L840.246 396.801Q842.441 397.031 845.164 400.411Q845.29 400.567 845.342 400.632Q846.16 401.645 846.979 402.712L846.266 403.258L845.368 403.216Q846.551 378.284 858 356.111L858.17 355.781L858.524 355.667Q871.389 351.543 884.667 349.045L884.833 349.928L884.23 350.593Q883.332 349.78 881.548 348.143Q869.926 337.483 863.174 333.85L861.381 332.885L863.303 332.211Q872.593 328.955 881.705 325.409L882.03 326.246L881.539 326.999Q875.958 323.354 865.355 315.225Q856.843 308.698 852.454 305.663L851.483 304.991L852.389 304.235Q862.007 296.197 877.652 272.072Q881.525 266.1 883.396 263.341Q885.373 260.425 889.355 254.635Q906.872 229.164 913.945 215.358L914.744 215.768L915.301 216.473Q904.144 225.281 880.274 240.704Q871.185 246.577 866.67 249.583Q862.26 252.52 853.71 258.787Q844.391 265.616 839.534 268.795L837.707 269.991L838.164 267.856Q838.48 266.378 839.112 263.37Q841.842 250.38 843.622 243.987L844.487 244.228L843.76 244.754Q834.918 232.542 815.395 209.955Q805.121 198.068 800.103 191.978Q796.301 187.362 788.993 177.898Q774.103 158.616 765.448 150.023Z" id="svg_30" class=""/><path fill="#333331" transform="translate(148.039, 6.86275) scale(0.556641)" d="M498.917 409.058C513.541 406.504 495.015 412.747 502.185 410.191C509.354 407.636 515.51 424.494 519.422 427.835C523.334 431.176 506.453 422.369 501.875 415.149C497.298 407.929 484.293 411.612 498.917 409.058Z" id="svg_31" class=""/><path fill="#BA694B" transform="translate(148.039, 6.86275) scale(0.556641)" d="M630.813 183.314L631.495 182.78C634.019 183.97 636.021 186.284 638.151 188.066C656.513 210.128 669.436 236.539 690.875 256C701.33 265.491 714.05 271.946 725.797 279.638C736.653 286.747 746.676 295.156 756.267 303.871C752.151 307.85 748.51 312.399 744.762 316.73C736.375 326.421 728.233 336.389 719.734 345.97C712.12 339.553 703.549 334.178 695.583 328.199C684.443 319.147 657.237 299.026 650.526 288.448C648.517 276.807 645.461 265.387 643.307 253.781C638.951 230.33 635.317 206.738 630.813 183.314Z" id="svg_32" class=""/><path fill="#333331" transform="translate(148.039, 6.86275) scale(0.556641)" d="M650.836 234.207C654.275 236.393 659.221 245.011 661.791 248.679C670.833 261.578 680.064 274.392 688.681 287.581C695.704 298.327 702.119 309.679 709.858 319.914C711.111 317.984 712.336 316.087 714.032 314.505C715.517 313.114 717.661 311.759 719.795 312.049C721.135 312.23 721.924 312.949 722.619 314.057C724.76 317.476 722.827 322.833 721.924 326.376C721.121 329.304 720.009 332.162 718.995 335.026C704.199 323.482 689.292 312.052 674.638 300.328C669.949 296.577 662.621 291.725 659.273 286.815C654.35 279.593 652.022 244.948 650.836 234.207Z" id="svg_33" class=""/><path fill="#BA694B" transform="translate(148.039, 6.86275) scale(0.556641)" d="M661.764 262.164C661.942 262.234 662.127 262.288 662.298 262.374C668.859 265.705 678.396 286.594 680.818 293.836C677.901 292.945 674.893 291.429 672.457 289.578C664.042 283.185 662.878 271.879 661.764 262.164Z" id="svg_34" class=""/><path fill="#333331" transform="translate(148.039, 6.86275) scale(0.556641)" d="M690.88 268.36C697.491 270.737 737.792 297.986 741.575 303.278L741.25 303.997L739.888 304.381C729.298 307.019 717.998 307.105 707.131 307.101C704.097 299.132 700.565 291.28 697.114 283.483C694.919 278.524 692.37 273.584 690.88 268.36Z" id="svg_35" class=""/><path fill="#BA694B" transform="translate(148.039, 6.86275) scale(0.556641)" d="M776.291 168.615C796.381 194.303 817.761 218.906 838.638 243.931C837.663 256.609 835.846 269.208 833.198 281.645C832.172 286.35 821.918 292.693 833.633 295.318C845.348 297.943 828.707 309.255 827.471 315.859C825.321 325.63 823.83 335.164 822.841 345.117C818.074 344.184 792.847 311.113 787.921 304.848C785.562 301.854 783.162 298.954 780.592 296.139C779.683 295.167 778.907 294.104 778.1 293.047C779.683 288.786 778.538 283.705 778.073 279.263C777.705 259.359 777.123 239.488 777.042 219.58C776.974 202.585 777.539 185.576 776.291 168.615Z" id="svg_36" class=""/><path fill="#333331" transform="translate(148.039, 6.86275) scale(0.556641)" d="M783.885 239.817C782.435 233.14 784.001 211.681 786.317 205.102C786.976 203.23 787.623 202.251 789.43 201.401C791.169 201.891 791.787 202.878 793.031 204.16C797.705 208.504 802.02 213.222 805.933 218.263C813.067 227.439 796.89 231.455 807.166 237.441C803.309 257.099 788.046 272.947 811.503 298.428C834.959 323.909 810.739 305.038 816.331 323.276C821.923 341.513 807.429 314.395 802.847 309.117C796.345 301.629 789.452 294.395 783.581 286.391C783.405 270.857 784.42 255.359 783.885 239.817Z" id="svg_37" class=""/><path fill="#333331" transform="translate(148.039, 6.86275) scale(0.556641)" d="M795.231 249.272C793.781 242.595 799.13 234.373 801.445 227.794C802.105 225.922 802.751 224.943 804.559 224.094C806.298 224.584 806.916 225.57 808.159 226.853C807.311 227.67 807.442 227.234 807.44 228.34C807.421 236.173 807.758 242.52 821.16 263.298C834.562 284.077 802.618 249.677 795.231 249.272Z" id="svg_38" class=""/><path fill="#333331" transform="translate(148.039, 6.86275) scale(0.556641)" d="M687.979 165.575C699.39 173.806 726.435 191.849 733.313 202.944C735.419 206.338 735.994 210.691 736.621 214.568C741.198 242.875 742.416 249.389 763.02 270.241C766.574 273.836 771.41 279.812 775.418 282.502C776.133 282.982 776.147 282.953 776.824 283.226L777.658 282.773C778.016 281.56 778.037 280.517 778.073 279.263C778.538 283.705 779.683 288.786 778.1 293.047C773.648 289.542 769.592 284.683 765.526 280.698C757.239 272.49 748.632 264.611 739.723 257.082C725.164 244.975 708.549 234.99 693.056 224.08C683.829 217.614 674.638 211.097 665.481 204.531C659.187 199.921 653.111 194.914 646.593 190.627C644.374 189.169 641.703 187.108 638.985 187.004L638.151 188.066C636.021 186.284 634.019 183.97 631.495 182.78L630.813 183.314C629.681 178.771 628.957 174.054 627.459 169.617L676.314 202.518C683.013 206.956 689.556 212.2 696.624 215.992C693.449 199.393 692.776 181.789 687.979 165.575Z" id="svg_39" class=""/><path fill="#BA694B" transform="translate(148.039, 6.86275) scale(0.556641)" d="M694.01 174.671C702.965 181.8 708.595 189.748 719.762 198.034C730.929 206.32 733.873 233.559 736.122 245.879C727.122 240.648 711.465 221.865 703.4 216.948C695.334 212.031 701.561 205.819 700.084 200.438C697.464 194.264 696.967 182.313 694.01 174.671Z" id="svg_40" class=""/><path fill="#333331" transform="translate(148.039, 6.86275) scale(0.556641)" d="M549.466 323.615C554.024 315.895 559.99 308.973 565.124 301.625C571.099 293.078 576.377 283.783 583.168 275.857C585.73 272.869 588.951 269.664 592.522 267.95C596.142 266.211 600.224 264.997 604.004 263.597C613.753 259.986 623.792 256.429 632.884 251.331C633.294 254.724 633.578 257.992 633.522 261.413C608.994 268.184 599.356 269.19 583.385 290.412C577.744 298.022 572.529 305.937 567.761 314.122C566.215 316.838 564.659 319.625 564.222 322.756C564.452 323.433 564.632 323.972 565.011 324.585C567.49 327.389 572.385 338.439 574.678 342.395C580.969 353.248 587.997 363.673 594.256 374.549C607.633 398.189 620.621 422.046 633.218 446.108C639.184 457.286 646.967 468.229 651.183 480.191C642.763 468.453 635.613 455.822 627.766 443.701L581.17 372.233C570.646 355.939 560.705 339.442 549.466 323.615Z" id="svg_41" class=""/><path fill="#333331" transform="translate(148.039, 6.86275) scale(0.556641)" d="M561.642 552.522L563.053 553.689C564.366 557.803 567.111 561.247 569.994 564.393C574.302 569.096 579.354 573.248 583.975 577.655L611.064 603.912C622.549 615.237 633.962 626.636 645.3 638.11C653.644 646.712 661.716 655.495 670.249 663.924C663.865 672.847 658.606 682.708 651.846 691.304C639.632 706.838 615.812 722.021 598.454 731.785C605.937 722.824 615.731 716.71 624.159 708.822C627.428 705.761 628.849 701.162 631.77 697.766C635.176 693.805 639.745 690.693 643.627 687.203C648.688 682.652 652.426 677.132 656.149 671.498C652.354 667.619 648.63 662.776 645.751 658.18C641.473 662.524 637.291 666.971 633.513 671.76C628.096 678.628 623.145 686.353 616.531 692.143C624.22 678.752 633.274 665.544 642.1 652.872C634.152 659.995 626.021 666.788 618.232 674.11C623.503 664.245 633.337 654.492 640.722 646.002C625.795 630.901 568.342 571.112 561.682 555.944C561.055 554.516 561.148 553.964 561.642 552.522Z" id="svg_42" class=""/><path fill="#BA694B" transform="translate(148.039, 6.86275) scale(0.556641)" d="M756.652 329.317C767.354 310.616 766.485 319.124 765.407 316.143C764.328 313.162 760.7 310.285 769.415 309.117C778.13 307.949 776.652 305.191 774.969 313.482C773.287 321.772 769.824 322.195 766.952 325.355C771.088 328.721 775.01 332.361 779.102 335.784C783.979 339.862 791.011 343.799 794.389 349.202C796.489 352.559 797.096 356.639 797.901 360.45C789.876 355.22 786.108 349.189 778.519 343.333C772.436 338.641 745.95 348.019 756.652 329.317Z" id="svg_43" class=""/><path fill="#333331" transform="translate(148.039, 6.86275) scale(0.556641)" d="M840.643 281.645L841.146 282.705C843.018 283.012 844.145 281.913 845.56 280.725C862.772 266.278 878.209 249.339 896.792 237.009C891.318 243.92 886.09 251.076 881.121 258.461C869.061 276.342 857.041 297.055 840.624 310.191C845.389 301.464 850.501 292.984 855.942 284.78C859.117 280.066 863.138 275.499 865.816 270.456C860.118 275.487 854.613 280.788 849.315 286.348C846.536 289.276 843.949 292.596 841.027 295.318C839.032 290.802 839.737 286.35 840.643 281.645Z" id="svg_44" class=""/><path fill="#333331" transform="translate(148.039, 6.86275) scale(0.556641)" d="M799.841 501.429C802.719 491.635 814.173 475.102 819.8 465.503C826.24 475.533 832.318 485.793 838.015 496.263C839.885 499.502 841.936 502.743 843.458 506.156C835.101 497.068 826.954 487.995 817.916 479.564C814.473 483.885 804.241 500.046 800.139 501.704L799.841 501.429Z" id="svg_45" class=""/><path fill="#333331" transform="translate(148.039, 6.86275) scale(0.556641)" d="M752.655 537.325C758.231 541.696 766.648 564.648 768.394 571.906C764.118 566.391 761.102 559.798 756.278 554.739C763.976 574.071 776.031 590.854 788.049 607.654C798.555 622.337 809.17 636.792 818.877 652.028C812.029 665.677 805.434 679.776 796.264 692.039C786.229 692.668 776.183 693.097 766.13 693.327L765.85 693.649C775.086 697.051 798.269 693.638 810.378 695.939C812.429 696.329 814.569 696.732 815.781 698.534L815.313 699.559C809.028 704.095 799.06 702.761 791.689 702.502C789.684 707.825 787.74 713.157 785.663 718.455C792.878 718.952 806.573 718.029 812.803 720.76C813.913 721.247 814.404 721.653 814.881 722.745L814.235 723.677C811.461 725.041 808.493 725.28 805.45 725.474C793.131 726.253 780.615 725.382 768.275 725.305C746.191 725.168 724.125 725.301 702.042 724.813C707.827 715.386 741.401 674.496 741.4 668.327C729.821 662.235 716.513 660.414 703.995 657.051C691.008 653.56 667.282 644.562 656.047 638.202C688.457 644.955 717.654 661.486 751.232 663.841C742.894 676.898 733.689 689.283 724.69 701.884C730.41 701.959 736.134 701.99 741.856 701.977C749.938 689.168 755.734 675.366 762.844 662.049C747.996 658.132 733.238 653.878 718.584 649.288C701.022 643.748 683.297 637.217 665.025 634.503C672.296 629.187 681.578 625.74 689.582 621.532C708.087 611.804 726.435 601.839 745.125 592.454C748.241 574.166 750.752 555.779 752.655 537.325Z" id="svg_46" class=""/><path fill="#333331" transform="translate(148.039, 6.86275) scale(0.556641)" d="M400.907 495.215C405.862 498.884 416.845 562.686 418.767 573.089C407.405 568.535 395.819 564.188 384.794 558.874C377.321 565.654 370.066 572.673 363.046 579.918C357.27 585.934 351.785 592.377 345.681 598.057C342.002 601.478 338.878 603.951 333.887 605.116C317.021 609.052 286.909 607.275 268.473 607.426C248.611 607.589 228.494 608.662 208.666 607.938L203.181 567.872C201.566 556.057 199.64 544.06 199.817 532.104C205.806 525.24 213.168 519.446 220.253 513.764C225.041 510.112 229.972 505.874 235.304 503.071C237.338 502.001 240.049 500.989 242.314 501.986C243.911 502.692 245.016 504.424 245.72 505.947C246.34 507.289 246.477 508.306 245.999 509.693L244.955 509.919C242.988 509.073 242.014 507.368 240.787 505.696C233.156 509.821 207.541 526.032 204.004 532.652C201.599 537.152 206.665 552.8 207.917 558.119C210.926 552.062 213.666 545.84 216.511 539.702C219.592 549.627 222.866 559.479 225.873 569.434C252.761 568.144 279.674 567.463 306.593 567.396C310.529 572.658 314.544 577.865 318.633 583.008C328.467 573.084 337.527 562.53 346.946 552.227C364.528 532.99 382.487 513.644 400.907 495.215Z" id="svg_47" class=""/><path fill="#333331" transform="translate(148.039, 6.86275) scale(0.556641)" d="M400.907 495.215C405.862 498.884 416.845 562.686 418.767 573.089C407.405 568.535 395.819 564.188 384.794 558.874C377.321 565.654 370.066 572.673 363.046 579.918C357.27 585.934 351.785 592.377 345.681 598.057C342.002 601.478 338.878 603.951 333.887 605.116C317.021 609.052 286.909 607.275 268.473 607.426C248.611 607.589 228.494 608.662 208.666 607.938L203.181 567.872C201.566 556.057 199.64 544.06 199.817 532.104C205.806 525.24 213.168 519.446 220.253 513.764C225.041 510.112 229.972 505.874 235.304 503.071C237.338 502.001 240.049 500.989 242.314 501.986C243.911 502.692 245.016 504.424 245.72 505.947C246.34 507.289 246.477 508.306 245.999 509.693L244.955 509.919C242.988 509.073 242.014 507.368 240.787 505.696C233.156 509.821 207.541 526.032 204.004 532.652C201.599 537.152 206.665 552.8 207.917 558.119C210.926 552.062 213.666 545.84 216.511 539.702C219.592 549.627 222.866 559.479 225.873 569.434C252.761 568.144 279.674 567.463 306.593 567.396C310.529 572.658 314.544 577.865 318.633 583.008C328.467 573.084 337.527 562.53 346.946 552.227C364.528 532.99 382.487 513.644 400.907 495.215Z" id="svg_48" class=""/><path fill="#BA694B" transform="translate(148.039, 6.86275) scale(0.556641)" d="M539.233 460.911C540.649 461.084 541.595 462.244 542.513 463.223C546.417 467.384 549.464 472.42 553.235 476.735C559.413 483.804 566.522 490.227 573.338 496.672C557.27 508.136 555.346 529.708 539.252 541.128C530.111 547.612 512.732 537.897 503.41 544.12C488.37 554.355 469.382 596.68 436.38 586.673C431.709 590.273 423.95 586.164 423.283 579.123C422.616 572.083 447.63 589.264 428.636 525.838C448.106 517.054 466.382 505.127 484.679 494.148C497.05 486.725 509.774 479.861 522.062 472.31C527.921 468.71 533.511 464.718 539.233 460.911Z" id="svg_49" class=""/><path fill="#BA694B" transform="translate(148.039, 6.86275) scale(0.556641)" d="M538.859 475.082C539.181 475.091 539.51 475.045 539.824 475.107C544.96 476.149 557.92 496.622 561.472 501.541C548.242 511.499 547.617 520.167 520.181 529.721C492.745 539.275 467.835 581.124 453.806 574.148C439.777 567.172 447.292 578.14 444.017 580.105C442.366 563.188 440.598 544.881 437.372 528.232L496.32 497.28C510.428 489.835 524.457 481.923 538.859 475.082Z" id="svg_50" class=""/><path fill="#BA694B" transform="translate(148.039, 6.86275) scale(0.556641)" d="M532.052 483.596C532.24 483.56 538.003 482.363 538.195 482.372C539.465 486.983 544.841 498.498 552.662 500.693C539.052 509.427 525.99 519.005 512.399 527.762C502.477 534.156 492.086 539.829 482.099 546.128C473.509 551.546 473.147 548.65 464.86 554.514L464.915 555.771C464.055 543.844 439.936 547.501 441.638 534.545C450.551 530.062 464.773 529.17 473.572 524.411C487.351 516.958 499.118 503.219 512.907 495.774C521.103 491.351 523.63 487.554 532.052 483.596Z" id="svg_51" class=""/><path fill="#BA694B" transform="translate(148.039, 6.86275) scale(0.556641)" d="M523.831 494.062C524.077 494.051 524.302 494.035 524.557 494.076C528.785 494.751 533.197 501.149 535.59 504.043C517.876 514.606 502.614 528.094 484.849 538.398C475.926 543.575 469.141 543.709 458.976 541.735C453.701 540.526 448.534 538.907 443.356 537.397C456.064 533.991 461.834 535.473 473.082 529.17C487.906 521.014 509.287 502.615 523.831 494.062Z" id="svg_52" class=""/><path fill="#333331" transform="translate(148.039, 6.86275) scale(0.556641)" d="M330.768 343.543C340.453 341.971 337.279 351.48 343.805 353.758C347.33 354.988 351.449 352.421 354.451 350.855C373.69 358.958 390.638 371.015 409.632 379.762C407.818 395.898 388.874 404.598 395.939 427.559L390.157 406.914C372.592 409.898 367 425.019 355.08 433.675C347.515 439.168 338.953 443.225 332.168 449.771C323.338 458.294 317.963 469.434 308.689 477.71C305.714 468.544 301.074 460.146 298.686 450.739L302.73 447.628C311.472 442.15 319.511 435.239 327.592 428.838C343.254 416.43 358.842 403.706 375.673 392.901C363.685 385.584 352.583 377.055 340.67 369.707C339.183 373.573 337.618 377.29 335.768 381.001C316.738 377.089 297.835 371.742 278.979 367C270.158 364.781 261.415 362.406 252.427 360.954C264.242 356.772 276.899 354.358 289.14 351.765C302.978 348.833 316.809 345.85 330.768 343.543Z" id="svg_53" class=""/><path fill="#333331" transform="translate(148.039, 6.86275) scale(0.556641)" d="M633.391 313.881C644.168 317.956 654.589 323.156 665.189 327.682C675.696 332.169 686.461 336.066 697.017 340.442C702.504 342.718 708.895 345.223 713.317 349.245C720.795 356.05 726.25 365.087 732.516 372.977C747.437 391.761 762.955 410.008 776.196 430.06C780.189 436.107 784.228 441.982 787.018 448.708C782.622 444.75 777.43 434.052 773.404 432.008L772.761 432.536L773.12 434.137C776.327 441.775 780.57 448.602 784.346 455.932C772.531 444.772 755.886 415.487 748.693 400.865C723.386 399.682 698.499 397.944 673.345 394.772C665.401 380.45 659.149 365.119 651.819 350.467C645.893 338.619 636.624 326.773 633.391 313.881Z" id="svg_54" class=""/><path fill="#BA694B" transform="translate(148.039, 6.86275) scale(0.556641)" d="M680.003 350.301C685.394 350.436 690.78 351.309 696.124 351.999C697.737 365.072 698.709 378.235 700.157 391.335C692.463 390.559 684.745 390.279 677.074 389.228C673.086 381.857 670.506 373.706 667.251 365.992C675.59 366.308 683.919 366.847 692.229 367.609C688.398 361.661 683.646 356.415 680.003 350.301Z" id="svg_55" class=""/><path fill="#333331" transform="translate(148.039, 6.86275) scale(0.556641)" d="M319.86 274.96L320.178 275.461C320.12 276.331 319.838 276.735 319.328 277.409C315.631 282.286 311.391 286.761 307.698 291.678C296.61 306.436 286.235 321.633 274.504 335.917C285.559 332.832 300.76 331.855 312.347 331.451C343.839 330.351 355.337 333.696 381.442 350.876C388.324 355.405 395.975 359.949 402.008 365.591C385.311 358.792 369.916 348.606 353.239 341.707C329.13 331.736 287.41 338.592 262.484 345.582C266.86 338.764 270.841 331.672 274.926 324.676C262.027 334.401 248.5 343.387 237.728 355.545C239.14 346.958 239.469 338.428 241.323 329.866C234.801 343.142 224.305 355.968 214.999 367.49C224.495 373.268 233.328 380.224 242.318 386.743C249.396 391.876 256.717 396.671 263.962 401.562C258.404 395.684 253.277 389.275 248.11 383.048C244.335 378.39 240.559 373.492 236.131 369.439C261.752 376.401 287.706 382.071 313.896 386.427C321.942 387.764 330.091 389.343 338.193 390.21C341.743 390.59 342.578 390.381 345.404 388.1C353.693 388.608 360.744 392.036 368.25 395.277C342.259 395.066 317.029 391.448 291.292 388.215C279.293 386.706 266.421 385.944 254.696 383.102C266.378 392.118 275.675 403.007 285.466 413.955C256.896 407.539 248.832 403.549 226.191 384.967C219.567 379.53 213.032 373.645 205.369 369.712C210.375 362.986 214.905 355.919 219.689 349.037L244.896 313.094C249.495 306.526 253.789 299.324 258.842 293.135C259.35 300.197 259.943 307.293 259.893 314.377C269.122 308.869 278.201 303.338 287.083 297.282C298.029 289.821 308.582 281.932 319.86 274.96Z" id="svg_56" class=""/><path fill="#BA694B" transform="translate(148.039, 6.86275) scale(0.556641)" d="M282.883 309.059L283.199 309.408C278.844 316.842 250.866 335.624 243.191 340.983C244.562 337.327 245.616 333.535 246.759 329.803C247.774 324.191 248.713 318.563 250.115 313.03C250.603 318.342 250.325 323.967 250.496 329.333C261.808 323.214 272.366 316.454 282.883 309.059Z" id="svg_57" class=""/><path fill="#333331" transform="translate(148.039, 6.86275) scale(0.556641)" d="M497.036 586.026C499.215 585.874 501.164 587.145 503.022 588.157C510.209 592.073 516.887 596.969 523.881 601.225C535.845 608.504 548.268 615.151 560.439 622.084C568.276 626.548 575.943 631.571 583.997 635.613C577.545 641.588 571.563 647.912 565.353 654.126C557.843 661.641 550.183 669.01 542.852 676.702C550.609 678.614 558.314 682.142 565.91 684.713C580.044 689.497 594.54 693.692 608.3 699.493C611.661 700.908 619.84 703.962 621.276 707.467L620.755 708.425C619.017 709.215 617.595 708.921 615.742 708.698C599.915 704.922 576.081 694.71 560.662 687.995C553.26 684.77 545.73 680.692 537.996 678.407C543.928 666.716 548.938 654.868 552.254 642.149C530.573 632.974 509.331 621.967 488.202 611.608C479.513 607.349 470.864 602.505 461.86 598.965C473.626 594.763 485.351 590.449 497.036 586.026Z" id="svg_58" class=""/><path fill="#333331" transform="translate(148.039, 6.86275) scale(0.556641)" d="M395.363 580.798C405.899 582.949 416.017 587.627 425.531 592.547L425.849 605.297C449.455 612.533 473.618 623.983 497.033 629.986C485.744 632.101 474.642 634.481 463.498 637.284C447.77 640.751 432.164 644.978 417.167 650.88C411.303 641.822 404.052 633.657 397.418 625.163C390.507 616.315 384.031 606.652 376.13 598.674C383.332 592.997 389.839 588.319 395.363 580.798Z" id="svg_59" class=""/><path fill="#333331" transform="translate(148.039, 6.86275) scale(0.556641)" d="M448.137 306.817C458.477 303.97 525.738 278.368 531.713 273.153C538.383 267.33 542.459 258.203 546.976 250.704C551.706 242.853 558.56 230.662 565.589 224.957C571.633 220.052 618.999 209.372 629.765 207.732C618.349 214.433 606.072 217.158 593.392 220.421C588.306 221.73 582.579 223.086 577.856 225.359C564.795 231.64 543.36 269.919 534.546 283.073C525.971 295.871 516.906 308.048 508.906 321.256C528.413 350.564 546.142 381.203 564.643 411.163C570.848 421.214 576.844 431.476 583.274 441.378C588.459 449.364 594.154 457.011 598.869 465.3C599.76 466.869 600.389 468.424 600.263 470.255L599.446 470.278C599.085 469.736 598.564 469.109 598.33 468.503C596.888 465.478 595.26 462.764 593.39 459.983C568.591 426.232 545.068 391.561 522.871 356.045C515.052 343.775 506.514 331.758 499.252 319.168C506.551 307.755 513.973 296.536 521.872 285.524C510.53 290.469 498.826 294.576 487.171 298.704C493.433 299.227 499.362 300.35 505.416 302.031C502.597 304.245 499.809 306.623 496.816 308.59C480.622 306.717 464.38 307.568 448.137 306.817Z" id="svg_60" class=""/><path fill="#333331" transform="translate(148.039, 6.86275) scale(0.556641)" d="M391.79 446.71L392.708 446.642L392.9 447.454C388.725 455.86 311.289 534.451 300.524 542.395C306.896 532.857 315.8 524.669 323.338 516.019C329.002 509.521 334.332 502.739 340.018 496.256C352.321 482.225 364.697 468.737 376.178 454.002C369.278 457.631 360.62 458.648 353.138 460.85C338.87 465.052 328.26 481.521 318.204 492.098C311.682 499.579 305.181 508.012 297.273 514.066C290.543 519.22 282.52 522.439 274.842 525.896C264.857 530.391 255.069 534.869 246.031 541.132C245.62 534.113 245.541 527.08 245.791 520.054C237.548 525.935 228.997 532.119 219.691 536.21C225.417 531.109 230.842 523.798 237.396 519.91C242.835 516.683 281.494 515.492 291.662 514.055C297.375 508.375 301.951 501.327 306.995 495.052C312.475 488.236 318.586 481.941 324.048 475.116C329.967 467.715 335.197 459.751 340.981 452.233C357.64 448.618 374.933 449.128 391.79 446.71Z" id="svg_61" class=""/><path fill="#333331" transform="translate(148.039, 6.86275) scale(0.556641)" d="M783.394 596.843C802.834 601.717 825.24 624.397 840.161 637.67C848.907 645.447 857.911 652.942 866.117 661.301C860.956 667.97 856.89 675.465 851.774 682.182C841.875 695.174 829.614 705.816 817.051 716.137C823.188 704.526 830.85 694.091 838.954 683.8C841.48 681.093 843.735 677.924 846.076 675.041C840.345 674.268 834.58 673.704 828.833 673.064C826.402 679.557 822.879 687.115 818.803 692.727C821.189 684.436 823.486 676.122 825.698 667.783C833.126 668.771 840.638 669.365 848.091 670.165C850.849 667.519 853.249 664.357 855.654 661.394C851.697 657.936 847.762 654.453 843.848 650.948C840.835 654.785 837.806 658.556 834.542 662.187C836.448 657.439 838.965 653.308 842.184 649.344C836.43 641.836 829.07 636.134 821.999 629.959C814.737 623.62 807.521 617.113 800.013 611.066C794.204 606.384 788.139 602.721 783.394 596.843Z" id="svg_62" class=""/><path fill="#52ADAD" transform="translate(148.039, 6.86275) scale(0.556641)" d="M807.633 435.989C804.87 431.402 800.934 427.155 797.614 422.914C789.452 412.491 780.331 400.896 774.495 388.973C773.438 386.817 772.129 384.149 772.968 381.745C774.696 380.484 777.166 380.585 779.243 380.213C782.311 382.36 785.365 384.431 788.611 386.301C795.149 390.142 802.901 392.208 808.985 396.759C813.615 400.221 815.516 408.975 816.15 414.528C817.192 423.67 812.974 429.211 807.633 435.989Z" id="svg_63" class=""/><path fill="#333331" transform="translate(148.039, 6.86275) scale(0.556641)" d="M807.633 435.989C804.87 431.402 800.934 427.155 797.614 422.914C789.452 412.491 780.331 400.896 774.495 388.973C773.438 386.817 772.129 384.149 772.968 381.745C774.696 380.484 777.166 380.585 779.243 380.213C782.311 382.36 785.365 384.431 788.611 386.301C795.149 390.142 802.901 392.208 808.985 396.759C813.615 400.221 815.516 408.975 816.15 414.528C817.192 423.67 812.974 429.211 807.633 435.989Z" id="svg_64" class=""/><path fill="#333331" transform="translate(148.039, 6.86275) scale(0.556641)" d="M415.453 448.174C428.106 450.08 440.654 453.325 453.239 455.696C469.905 458.838 503.831 462.101 517.65 469.601C510.123 468.658 502.506 467.83 494.928 467.436C486.799 466.454 478.242 466.673 470.047 466.461L427.457 465.316C428.544 473.377 428.905 481.663 429.57 489.77C425.082 475.837 420.052 462.074 415.453 448.174Z" id="svg_65" class=""/><path fill="#2A2A28" transform="translate(148.039, 6.86275) scale(0.556641)" d="M358.488 597.854C369.596 600.894 401.51 645.666 414.172 655.633C426.212 654.476 438.274 653.574 450.352 652.931C464.486 652.229 479.289 652.392 493.124 649.367C495.007 646.063 497.132 642.817 499.559 639.887C500.634 638.59 502.024 636.608 503.813 636.448L504.279 637.133L503.528 639.05C501.088 644.493 498.113 649.669 495.136 654.828C479.841 654.853 464.756 656.165 449.513 657.289L410.787 659.849C402.258 649.464 359.71 605.245 358.488 597.854Z" id="svg_66" class=""/><path fill="#333331" transform="translate(148.039, 6.86275) scale(0.556641)" d="M819.5 362.801C823.618 365.782 834.043 403.147 837.391 410.642C840.321 417.197 846.131 422.357 848.323 429.281C851.395 438.987 847.595 464.037 843.074 473.305C842.924 468.487 843.988 437.331 842.971 435.77L841.284 435.428C833.134 433.551 826.616 431.259 821.53 424.211C829.979 424.748 836.175 427.098 843.444 431.318C834.49 422.393 827.07 412.595 819.694 402.355C824.624 406.047 829.616 409.656 834.666 413.18C825.389 397.959 820.167 380.615 819.5 362.801Z" id="svg_67" class=""/><path fill="#2A2A28" transform="translate(148.039, 6.86275) scale(0.556641)" d="M517.706 636.394C523.925 636.962 530.863 641.518 536.422 644.279C527.651 657.248 517.835 669.41 508.853 682.234C514.979 685.299 520.882 689.208 526.791 692.711C539.303 700.136 551.774 707.633 564.202 715.199C572.448 720.174 585.139 726.104 592.007 732.284C593.036 733.211 593.191 733.328 593.254 734.654C582.588 732.327 572.844 726.28 563.638 720.623C543.69 708.364 524.451 692.749 502.734 683.824C512.237 670.106 519.91 658.443 530.998 645.673C526.386 643.049 521.349 640.296 517.706 636.394Z" id="svg_68" class=""/><path fill="#333331" transform="translate(148.039, 6.86275) scale(0.556641)" d="M537.271 571.428C538.926 571.809 540.207 572.797 541.534 573.805C551.007 580.994 559.533 589.308 568.636 596.936C584.1 609.896 600.082 622.452 614.804 636.254C608.464 640.983 603.571 646.458 598.108 652.11C592.804 657.607 587.331 662.936 581.691 668.088C579.413 670.352 577.049 672.439 574.59 674.503C578.282 667.995 584.093 661.987 588.8 656.145C594.109 649.557 599.139 642.758 604.354 636.096C592.662 626.034 582.038 614.984 570.846 604.401C563.879 597.815 541.351 578.242 537.271 571.428Z" id="svg_69" class=""/><path fill="#333331" transform="translate(148.039, 6.86275) scale(0.556641)" d="M819.771 434.853C820.17 434.948 820.344 434.952 820.693 435.202C824.877 438.215 831.951 465.704 833.92 471.963C828.673 464.556 824.943 456.054 820.731 448.027L812.901 457.191C807.164 463.662 802.744 471.115 798.237 478.46C801.499 454.994 802.333 451.35 819.771 434.853Z" id="svg_70" class=""/><path fill="#333331" transform="translate(148.039, 6.86275) scale(0.556641)" d="M490.9 322.402L491.782 322.989C491.736 323.401 491.745 323.577 491.529 323.992C487.895 330.964 470.889 341.335 463.858 344.686C472.411 352.215 482.412 358.495 488.61 368.261C486.247 366.993 483.969 365.554 481.672 364.169C472.328 357.597 463.094 350.871 453.972 343.996C467.012 338.621 479.13 330.094 490.9 322.402Z" id="svg_71" class=""/><path fill="#2A2A28" transform="translate(148.039, 6.86275) scale(0.556641)" d="M756.766 348.907Q759.686 350.133 765.593 352.515Q777.384 357.271 783.115 359.962L783.331 360.063L783.468 360.258Q791.804 372.103 790.402 378.702Q790.353 378.935 790.198 379.281Q790.148 379.393 790.131 379.437L789.754 380.418L788.844 379.894Q787.422 379.075 787.073 377.848Q786.678 376.458 779.614 373.87Q772.09 371.114 763.401 359.391Q758.666 353.004 755.812 350.399L756.766 348.907ZM756.07 350.564L756.418 349.736L757.024 349.072Q760.006 351.794 764.844 358.321Q773.213 369.612 780.232 372.184Q788.155 375.086 788.801 377.356Q788.951 377.882 789.74 378.337L789.292 379.115L788.453 378.793Q788.489 378.702 788.558 378.547Q788.635 378.374 788.645 378.329Q789.883 372.496 781.998 361.292L782.733 360.775L782.351 361.588Q776.666 358.918 764.921 354.181Q759.005 351.795 756.07 350.564Z" id="svg_73" class="" opacity="1"/><path fill="#333331" transform="translate(148.039, 6.86275) scale(0.556641)" d="M866.119 321.516C868.516 321.863 870.713 323.363 872.791 324.533C866.908 325.535 861.218 327.446 855.295 328.275C858.626 331.041 862.201 333.77 865.223 336.865C866.778 338.459 868.28 340.004 868.242 342.316L866.89 343.299C857.958 341.141 851.549 334.523 846.776 326.952C853.247 325.524 859.878 323.742 866.119 321.516Z" id="svg_74" class=""/><path fill="#52ADAD" transform="translate(148.039, 6.86275) scale(0.556641)" d="M501.44 344.261C502.478 344.098 503.554 344.098 504.553 344.464C507.095 345.399 509.089 347.078 510.359 349.437C510.422 350.682 510.6 351.402 509.693 352.416C506.344 356.152 496.873 354.783 492.267 354.573C491.467 354.552 490.668 354.525 489.868 354.491C488.566 354.448 487.055 354.546 485.817 354.103C484.774 353.729 484.712 353.641 484.226 352.615C484.297 352.448 484.348 352.268 484.443 352.11C486.669 348.417 497.369 345.704 501.44 344.261Z" id="svg_75" class=""/><path fill="#333331" transform="translate(148.039, 6.86275) scale(0.556641)" d="M849.726 350.244C850.1 350.519 850.348 350.637 850.587 351.043C853.254 355.583 845.01 378.891 843.104 384.643L838.776 381.471C836.89 379.627 835.747 377.709 834.477 375.436L842.13 375.481C843.923 367.368 844.726 357.078 849.726 350.244Z" id="svg_76" class=""/><path fill="#52ADAD" transform="translate(148.039, 6.86275) scale(0.556641)" d="M557.7 427.739L559.123 427.814C562.504 429.8 564.378 433.269 566.451 436.474L543.199 438.672L534.468 439.299C540.781 435.157 550.608 431.442 557.7 427.739Z" id="svg_77" class=""/><path fill="#52ADAD" transform="translate(148.039, 6.86275) scale(0.556641)" d="M532.515 389.316C532.637 389.35 532.776 389.352 532.882 389.418C534.394 390.374 537.553 394.031 537.783 395.853C537.921 396.94 537.642 397.842 536.8 398.56C533.149 401.672 522.105 400.373 517.364 400.245L509.946 400.876C517.583 397.245 525.108 393.392 532.515 389.316Z" id="svg_78" class=""/><path fill="#52ADAD" transform="translate(148.039, 6.86275) scale(0.556641)" d="M516.043 368.171C516.218 368.164 516.394 368.137 516.568 368.153C520.308 368.475 523.145 373.183 525.126 375.926C518.429 377.595 511.595 378.506 504.772 379.519C501.301 379.942 497.827 380.63 494.374 381.201C501.635 376.877 508.938 372.765 516.043 368.171Z" id="svg_79" class=""/><path fill="#52ADAD" transform="translate(148.039, 6.86275) scale(0.556641)" d="M544.541 409.149C545.1 409.131 545.281 409.084 545.849 409.246C549.138 410.18 551.29 414.555 552.814 417.361C544.961 418.64 536.996 419.224 529.066 419.831C526.183 420.488 523.236 420.982 520.331 421.555C528.534 417.592 536.556 413.547 544.541 409.149Z" id="svg_80" class=""/><path fill="#52ADAD" transform="translate(148.039, 6.86275) scale(0.556641)" d="M581.56 462.348C582.55 462.292 580.216 464.334 581.02 463.673C582.373 466.225 586.603 465.914 587.646 468.691C585.084 469.784 582.332 470.11 579.695 469.185C575.989 468.082 572.417 466.092 568.869 464.358C573.023 462.647 577.182 461.221 581.56 462.348Z" id="svg_81" class=""/><path fill="#333331" transform="translate(148.039, 6.86275) scale(0.556641)" d="M479.354 383.457C500.785 380.784 482.623 384.025 484.163 384.564C492.125 387.354 506.482 395.151 509.67 402.067C500.867 400.255 492.115 392.833 483.768 389.524C475.421 386.215 457.923 386.131 479.354 383.457Z" id="svg_82" class=""/><path fill="#52ADAD" transform="translate(148.039, 6.86275) scale(0.556641)" d="M571.819 444.684C572.079 444.715 572.349 444.704 572.602 444.779C575.209 445.561 576.923 450.009 578.017 452.256C572.184 451.159 565.907 451.112 559.985 451.099C558.162 451.168 555.931 451.619 554.362 450.699C556.445 447.361 567.847 445.613 571.819 444.684Z" id="svg_83" class=""/><path fill="#333331" transform="translate(148.039, 6.86275) scale(0.556641)" d="M524.351 433.876C530.432 435.007 537.887 439.872 542.156 446.132C540.959 446.17 539.804 446.114 538.624 445.792C533.154 444.295 527.466 440.657 524.351 433.876Z" id="svg_84" class=""/><path fill="#333331" transform="translate(148.039, 6.86275) scale(0.556641)" d="M383.343 419.8C386.935 421.974 387.208 436.23 387.058 439.936L384.202 441.229C382.088 440.89 380.483 440.545 378.632 439.953C375.058 434.4 381.024 425.376 383.343 419.8Z" id="svg_85" class=""/><path fill="#BA694B" transform="translate(148.039, 6.86275) scale(0.556641)" d="M389.616 672.757C394.193 677.069 416.435 697.309 402.906 695.975C389.377 694.641 434.372 752.171 449.525 780.586C429.934 780.074 410.232 780.399 390.625 780.257C370.557 780.705 350.472 780.41 330.4 780.852C335.06 769.976 341.391 759.328 346.938 748.851C360.461 723.097 374.691 697.723 389.616 672.757Z" id="svg_86" class=""/><path fill="#2A2A28" transform="translate(148.039, 6.86275) scale(0.556641)" d="M385.473 706.047C390.142 708.525 411.951 758.286 424.73 765.149C437.509 772.012 402.069 765.275 390.749 765.28C378.862 765.392 366.975 765.343 355.089 765.135C358.65 759.614 361.772 753.698 365.051 747.994C373.377 733.525 377.665 720.802 385.473 706.047Z" id="svg_87" class=""/><path fill="#BA694B" transform="translate(148.039, 6.86275) scale(0.556641)" d="M225.431 674.216C255.091 672.897 285.216 674.04 314.9 674.59L314.894 733.45C303.756 733.745 292.643 734.239 281.521 733.357C291.851 749.638 303.753 764.935 314.702 780.807L297.544 780.856C294.233 774.173 289.086 768.12 284.749 762.077C276.351 750.181 267.744 738.433 258.932 726.842C257.082 724.423 255.062 722.198 253.005 719.956L300.16 719.865C300.458 709.698 300.58 699.527 300.524 689.357C279.976 689.928 259.383 689.632 238.827 689.664C238.439 699.843 239.003 710.259 239.012 720.468C239.149 740.569 238.946 760.672 238.403 780.768C233.167 780.868 227.921 780.775 222.684 780.748C222.046 769.734 221.105 677.556 222.743 674.992C223.104 674.426 224.761 674.345 225.431 674.216Z" id="svg_88" class=""/><path fill="#BA694B" transform="translate(148.039, 6.86275) scale(0.556641)" d="M116.588 674.236C145.004 673.117 173.682 673.875 202.107 674.573C202.082 679.526 202.033 684.451 202.418 689.393L128.819 689.549C128.527 699.821 128.658 710.14 128.598 720.42C139.318 719.222 150.841 719.919 161.641 720.082C174.969 720.398 188.305 720.357 201.631 719.96L201.43 733.919L153.407 733.926C145.122 733.773 136.837 733.682 128.551 733.651C128.32 744.249 128.659 754.889 128.667 765.494L201.629 765.571C201.703 770.411 201.631 775.26 201.618 780.099C172.393 780.466 143.123 780.128 113.892 780.128L113.508 715.111C113.401 702.211 112.783 688.782 113.79 675.939C114.75 674.548 114.925 674.667 116.588 674.236Z" id="svg_89" class=""/><path fill="#BA694B" transform="translate(148.039, 6.86275) scale(0.556641)" d="M425.388 189.314C427.969 191.281 429.246 195.652 430.617 198.507C433.594 204.703 440.654 206.819 446.676 208.916C444.231 209.573 441.799 210.225 439.481 211.262C431.835 214.677 429.14 220.871 426.342 228.219C423.286 225.505 421.532 219.952 419.204 216.495C415.933 211.639 410.214 209.969 404.798 208.804C406.661 208.188 408.517 207.556 410.319 206.778C418.778 203.127 422.145 197.531 425.388 189.314Z" id="svg_90" class=""/><path fill="#BA694B" transform="translate(148.039, 6.86275) scale(0.556641)" d="M253.974 239.873C258.105 242.652 262.051 246.52 265.913 249.734C261.533 253.043 258.314 256.931 255.45 261.571L254.829 261.853L254.074 261.372C251.573 256.366 248.936 253.056 244.287 249.89C249.303 247.242 251.724 245.262 253.974 239.873Z" id="svg_91" class="" opacity="1"/><path fill="#BA694B" transform="rotate(12.9352, 423.065, 137.864) translate(0, -0.980392) scale(0.556641)" d="M539.9028853061377,247.53316268528133 C543.2030425389898,241.25233049155713 546.5883547539944,234.76059334531777 549.4868375427311,230.63926244969917 C555.4782135511564,222.12118360282454 555.8831013908248,225.69829701312966 557.105798398712,227.44839457988243 C551.209217559098,238.01349208352127 545.4202854705069,248.1807649512395 541.0131134696727,253.66015832540634 C538.574146245004,255.19604262666337 539.2794865688707,251.77607408293807 539.9028853061377,247.53316268528133 z" id="svg_93" class=""/><path fill="#BA694B" transform="rotate(-0.43821, 400.693, 134.843) translate(17.6471, 35.2941) scale(0.556641)" d="M476.00609387986157,176.87088394247476 C473.8859651424833,171.4238558630842 471.67088732899794,165.80106657802048 470.95095699243916,162.0214160078067 C469.46302083774845,154.21102743070304 472.7658064218276,156.67325360660732 475.31861449336475,157.59129204695407 C478.5697189347527,166.85014127438248 481.5924648386679,175.79199261300744 482.04197059137744,180.9722402909297 C481.06724020248066,182.76045362900678 478.90985296688314,180.10049609672012 476.00609387986157,176.87088394247476 z" id="svg_94" class=""/><path fill="#2A2A28" transform="translate(148.039, 6.86275) scale(0.556641)" d="M540.744 905.432C540.744 895.506 554.009 887.467 570.386 887.467C586.763 887.467 600.028 895.506 600.028 905.432C600.028 915.357 586.763 923.396 570.386 923.396C554.009 923.396 540.744 915.357 540.744 905.432Z" id="svg_97" class=""/><rect fill="#2A2A28" style="color: rgb(0, 0, 0);" stroke-dashoffset="" fill-rule="nonzero" id="svg_99" x="714.9411926269531" y="-4.019548416137695" width="156.33334350585938" height="577.9215087890625" class=""/><rect fill="#2A2A28" style="color: rgb(0, 0, 0);" stroke-dashoffset="" fill-rule="nonzero" x="-0.352935791015625" y="-4.607784271240234" width="156.33334350585938" height="577.9215087890625" class="" id="svg_104"/><rect fill="#2A2A28" style="color: rgb(0, 0, 0);" stroke-dashoffset="" fill-rule="nonzero" id="svg_101" x="841.0392150878906" y="505.8627452850342" width="7" height="34" class=""/></g></svg>